<?xml version="1.0" encoding="UTF-8"?>
<!DOCTYPE svg PUBLIC "-//W3C//DTD SVG 1.1//EN" "http://www.w3.org/Graphics/SVG/1.1/DTD/svg11.dtd">
<!-- Creator: CorelDRAW 2020 (64-Bit) -->
<svg xmlns="http://www.w3.org/2000/svg" xml:space="preserve" width="76.7767mm" height="63.865mm" version="1.1" style="shape-rendering:geometricPrecision; text-rendering:geometricPrecision; image-rendering:optimizeQuality; fill-rule:evenodd; clip-rule:evenodd"
viewBox="0 0 3767.08 3133.56"
 xmlns:xlink="http://www.w3.org/1999/xlink"
 xmlns:xodm="http://www.corel.com/coreldraw/odm/2003">
 <defs>
  <style type="text/css">
   <![CDATA[
    .str0 {stroke:#FEFEFE;stroke-width:49.07;stroke-miterlimit:22.9256}
    .str1 {stroke:#373435;stroke-width:9.81;stroke-miterlimit:22.9256}
    .fil4 {fill:none}
    .fil5 {fill:#FEFEFE}
    .fil1 {fill:#014026}
    .fil3 {fill:#1B8048}
    .fil2 {fill:#65AF26}
    .fil6 {fill:#84BF51}
    .fil0 {fill:#FBC808}
   ]]>
  </style>
 </defs>
 <g id="Capa_x0020_1">
  <metadata id="CorelCorpID_0Corel-Layer"/>
  <rect class="fil0 str0" x="24.53" y="24.53" width="3718.02" height="3084.5"/>
  <rect class="fil1 str0" x="24.53" y="24.53" width="3718.02" height="758.14"/>
  <rect class="fil1 str0" x="24.53" y="2849.4" width="3718.02" height="259.63"/>
  <rect class="fil2 str0" x="24.53" y="782.68" width="789.3" height="2066.72"/>
  <rect class="fil3" x="954.04" y="1000.78" width="2684.66" height="228.48"/>
  <rect class="fil4 str1" x="974.81" y="1369.47" width="1994.05" height="1277.42"/>
  <rect class="fil5" x="3057.11" y="1369.47" width="566.01" height="1277.42"/>
  <line class="fil4 str1" x1="1134.14" y1="2525.86" x2="2833.22" y2= "2528.45" />
  <line class="fil4 str1" x1="1134.14" y1="2436.31" x2="2833.22" y2= "2438.91" />
  <line class="fil4 str1" x1="1134.14" y1="2346.76" x2="2833.22" y2= "2349.36" />
  <line class="fil4 str1" x1="1134.14" y1="2257.21" x2="2833.22" y2= "2259.81" />
  <line class="fil4 str1" x1="1134.14" y1="2167.66" x2="2833.22" y2= "2170.26" />
  <line class="fil4 str1" x1="1134.14" y1="2078.11" x2="2833.22" y2= "2080.71" />
  <line class="fil4 str1" x1="1134.14" y1="1988.56" x2="2252.29" y2= "1991.16" />
  <line class="fil4 str1" x1="1134.14" y1="1899.01" x2="2252.29" y2= "1901.61" />
  <line class="fil4 str1" x1="1134.14" y1="1809.46" x2="2252.29" y2= "1812.06" />
  <line class="fil4 str1" x1="1134.14" y1="1719.92" x2="2252.29" y2= "1722.51" />
  <line class="fil4 str1" x1="1134.14" y1="1630.37" x2="2252.29" y2= "1632.96" />
  <line class="fil4 str1" x1="1134.14" y1="1540.82" x2="2252.29" y2= "1543.41" />
  <rect class="fil6 str1" x="2319.8" y="1543.41" width="513.42" height="446.96"/>
  <line class="fil4 str1" x1="2319.8" y1="1543.41" x2="2833.22" y2= "1990.37" />
  <line class="fil4 str1" x1="2319.8" y1="1961.42" x2="2833.22" y2= "1543.41" />
 </g>
</svg>
