<?xml version="1.0" standalone="no"?>
<!DOCTYPE svg PUBLIC "-//W3C//DTD SVG 20010904//EN"
 "http://www.w3.org/TR/2001/REC-SVG-20010904/DTD/svg10.dtd">
<svg version="1.0" xmlns="http://www.w3.org/2000/svg"
 width="2019.000000pt" height="2019.000000pt" viewBox="0 0 2019.000000 2019.000000"
 preserveAspectRatio="xMidYMid meet">
<metadata>
Created by potrace 1.11, written by Peter Selinger 2001-2013
</metadata>
<g transform="translate(0.000000,2019.000000) scale(0.100000,-0.100000)"
fill="#000000" stroke="none">
<path d="M2583 18788 c3 -35 265 -3600 583 -7923 318 -4323 579 -7862 581
-7864 2 -3 1430 -375 3173 -827 l3170 -823 3170 823 c1743 452 3171 824 3173
827 2 2 263 3541 581 7864 318 4323 580 7888 583 7923 l6 62 -7513 0 -7513 0
6 -62z m5147 -2103 l0 -685 180 0 180 0 0 685 0 685 280 0 280 0 -2 -732 -3
-732 -188 -113 -188 -113 -355 0 -356 0 -188 113 -189 112 -1 733 0 732 275 0
275 0 0 -685z m1915 221 l220 -459 5 459 5 459 243 3 242 2 0 -851 0 -852
-242 7 c-134 4 -246 11 -249 14 -3 4 -111 226 -240 493 l-234 485 -3 -493 -2
-493 -245 0 -245 0 0 845 0 845 262 -2 262 -3 221 -459z m1533 -223 l2 -683
325 0 325 0 -2 -162 -3 -163 -600 0 -600 0 -3 848 -2 847 277 -2 278 -3 3
-682z m1202 -318 l0 -465 120 0 120 0 2 463 3 462 188 3 187 2 0 -499 0 -500
-134 -80 -134 -81 -227 0 -227 0 -134 81 -134 80 0 500 0 499 185 0 185 0 0
-465z m-6110 -250 c51 -421 212 -801 484 -1145 126 -160 301 -341 625 -648
476 -451 683 -670 880 -932 337 -447 479 -876 431 -1305 -25 -227 -105 -458
-286 -830 -131 -270 -178 -386 -200 -495 -29 -147 -3 -268 84 -382 43 -56 53
-63 127 -90 72 -26 162 -56 191 -63 6 -2 14 -32 18 -67 5 -53 3 -65 -11 -75
-50 -37 -158 -19 -295 49 -195 98 -298 287 -298 549 0 180 46 398 155 739 167
521 177 946 35 1373 -135 404 -379 720 -930 1204 -116 102 -269 249 -352 339
-82 87 -207 222 -279 299 -275 294 -412 515 -481 775 -29 109 -36 334 -14 460
22 122 90 350 101 338 2 -2 9 -44 15 -93z m7730 -80 c100 -463 -13 -875 -357
-1305 -101 -127 -351 -372 -593 -581 -118 -103 -258 -233 -310 -290 -52 -57
-147 -156 -211 -219 -539 -535 -732 -1102 -613 -1800 22 -133 50 -253 130
-555 95 -364 117 -480 118 -625 1 -92 -4 -129 -21 -185 -65 -207 -250 -375
-446 -405 -38 -6 -84 -8 -103 -4 -31 6 -34 9 -34 41 0 74 36 112 178 182 174
87 217 153 215 331 -2 203 -92 476 -316 955 -79 169 -123 295 -153 435 -27
126 -25 380 4 516 78 363 290 726 679 1161 53 60 305 317 561 573 464 464 608
616 749 792 164 204 309 451 367 628 14 41 34 143 45 225 25 176 39 253 54
280 9 18 11 16 23 -18 7 -20 22 -80 34 -132z m-7990 -445 c33 -256 123 -507
253 -700 60 -89 134 -164 487 -490 343 -317 474 -444 633 -615 426 -459 667
-877 747 -1293 12 -63 20 -116 17 -118 -9 -9 -137 44 -172 70 -39 30 -59 63
-70 116 -26 127 -137 216 -386 310 l-86 32 -17 77 c-32 149 -116 306 -261 486
-44 55 -208 228 -364 385 -302 304 -419 430 -511 550 -313 411 -410 795 -313
1244 20 93 25 86 43 -54z m8227 13 c4 -38 8 -151 7 -253 -1 -150 -5 -204 -22
-287 -56 -260 -178 -502 -376 -743 -43 -52 -231 -246 -416 -430 -186 -184
-363 -365 -393 -401 -156 -190 -246 -368 -291 -580 -5 -23 -13 -27 -106 -47
-196 -41 -260 -87 -330 -237 -26 -55 -64 -119 -84 -142 -37 -42 -182 -140
-192 -130 -10 10 16 189 42 292 67 270 230 562 479 862 121 146 378 407 680
691 526 494 710 702 819 919 42 83 58 138 96 318 33 154 57 235 70 235 5 0 12
-30 17 -67z m-8476 -401 c51 -289 182 -561 407 -842 42 -52 182 -198 311 -325
594 -580 656 -649 751 -840 29 -56 60 -137 72 -186 l20 -86 -27 -44 c-15 -24
-59 -79 -97 -121 -78 -87 -106 -143 -138 -276 l-22 -92 -47 26 c-196 113 -382
255 -560 429 -228 222 -384 428 -506 665 -282 552 -372 1292 -223 1835 l22 80
9 -55 c4 -30 17 -106 28 -168z m8743 -19 c18 -195 21 -602 6 -768 -48 -522
-220 -963 -512 -1310 -114 -135 -524 -524 -622 -589 -73 -49 -209 -116 -234
-116 -5 0 -15 37 -22 83 -19 133 -40 179 -118 261 -94 99 -136 163 -134 201 4
57 42 176 82 254 55 111 138 209 303 359 195 178 519 509 656 672 206 243 295
373 387 563 56 118 67 154 150 512 33 144 35 140 58 -122z m-4046 71 c171 -36
320 -153 399 -314 59 -120 60 -126 21 -185 -52 -79 -185 -211 -266 -266 -85
-56 -205 -116 -304 -150 -39 -14 -68 -30 -68 -38 0 -34 35 -141 62 -194 17
-32 47 -72 67 -89 44 -39 171 -98 272 -128 l76 -22 6 -331 c21 -1086 135
-1793 496 -3082 221 -789 278 -1047 328 -1480 20 -181 23 -668 5 -845 -20
-189 -54 -414 -64 -427 -6 -7 -20 -13 -32 -13 -37 0 -184 -40 -258 -71 -312
-128 -549 -463 -632 -894 -27 -138 -36 -290 -36 -610 l-1 -310 -25 30 c-13 17
-56 84 -95 150 -111 187 -193 305 -253 364 l-55 55 -68 -61 c-86 -76 -146
-155 -255 -335 -48 -79 -97 -154 -108 -168 l-21 -25 7 240 c13 499 -36 791
-183 1078 -101 198 -227 340 -377 426 -39 22 -132 63 -206 91 -74 28 -151 57
-171 66 l-37 16 -16 121 c-31 237 -39 365 -39 627 0 634 80 1086 398 2230 234
843 328 1262 394 1755 86 636 86 1343 0 1983 -11 79 -12 82 -38 82 -48 0 -174
41 -254 82 -88 46 -208 152 -256 226 -17 27 -31 51 -31 54 0 4 39 -5 88 -19
63 -18 122 -26 213 -30 112 -5 135 -3 200 17 97 29 103 33 314 170 99 65 212
133 250 153 176 88 358 111 553 71z m1125 -489 c208 -27 307 -72 370 -168 31
-48 72 -136 65 -142 -2 -2 -37 11 -78 27 -196 79 -286 75 -567 -26 -295 -106
-474 -143 -742 -153 -114 -5 -152 -3 -147 5 4 6 75 63 159 126 84 63 194 146
245 185 108 82 189 126 270 145 77 19 285 19 425 1z m-367 -496 c-23 -145
-148 -255 -337 -295 -186 -40 -406 29 -488 153 -34 51 -57 111 -46 121 4 4 64
5 133 2 311 -11 428 -5 582 28 80 17 149 31 154 31 5 1 6 -17 2 -40z m3454
-924 c-28 -528 -186 -960 -488 -1336 -121 -150 -470 -457 -492 -432 -4 4 -22
70 -39 146 -38 165 -53 214 -93 290 -40 74 -92 121 -214 192 -54 32 -107 64
-117 70 -15 11 5 28 160 141 555 400 882 687 1067 934 44 58 109 136 145 173
l66 68 6 -43 c4 -24 3 -115 -1 -203z m-8960 30 c124 -148 376 -399 556 -555
120 -103 269 -216 449 -338 121 -82 255 -188 255 -201 0 -3 -39 -26 -87 -50
-175 -86 -253 -160 -294 -276 -21 -60 -45 -198 -55 -322 -4 -46 -9 -83 -11
-83 -13 0 -153 88 -220 139 -93 70 -247 227 -325 331 -220 294 -380 671 -443
1050 -18 104 -32 441 -21 485 l7 28 36 -34 c19 -19 88 -97 153 -174z m1940
-690 c60 -30 153 -114 196 -177 l29 -41 -35 -29 c-19 -16 -69 -49 -111 -73
-96 -55 -174 -133 -223 -224 -55 -100 -55 -100 -122 -60 -211 127 -239 393
-58 558 94 86 212 103 324 46z m5160 -14 c121 -62 184 -182 160 -310 -16 -89
-56 -158 -142 -245 l-79 -80 -29 35 c-16 19 -43 62 -60 96 -34 69 -64 99 -182
177 -46 31 -103 73 -127 94 -53 46 -51 52 39 136 102 93 185 128 300 123 53
-3 88 -10 120 -26z m1907 -358 c-20 -358 -273 -941 -564 -1300 -82 -102 -260
-269 -348 -328 -51 -33 -131 -71 -193 -90 -21 -6 -20 -2 14 51 52 81 110 209
123 272 15 73 14 165 -4 241 -14 58 -74 193 -96 216 -5 5 -9 12 -9 16 0 11
145 119 335 248 335 229 434 322 566 533 86 137 165 248 175 248 4 0 4 -48 1
-107z m-9149 -53 c169 -246 245 -332 405 -461 111 -90 350 -250 480 -323 65
-36 87 -54 84 -65 -3 -9 -24 -60 -46 -114 -102 -244 -96 -331 35 -573 73 -134
73 -135 37 -124 -195 59 -446 283 -655 585 -241 349 -424 810 -445 1124 l-6
86 23 -20 c12 -11 52 -63 88 -115z m2460 -20 c127 -45 141 -68 149 -251 9
-197 -19 -337 -147 -737 -102 -319 -129 -430 -137 -562 -21 -358 163 -578 574
-686 54 -14 101 -29 105 -32 4 -4 3 -50 -2 -103 -6 -72 -14 -107 -34 -145 -45
-86 -49 -89 -118 -87 -34 2 -76 7 -94 13 -40 14 -90 68 -129 143 -21 41 -34
55 -45 51 -99 -38 -185 -40 -299 -9 l-61 18 0 66 c0 36 -3 96 -7 134 l-6 67
-77 0 c-193 0 -303 97 -286 252 6 62 38 145 76 198 21 30 20 50 -4 50 -30 0
-157 73 -190 110 -64 71 -81 114 -81 210 0 73 4 92 27 135 31 59 98 124 160
156 23 12 44 23 46 24 2 2 -18 32 -44 67 -89 119 -123 236 -94 323 32 96 144
164 286 173 l84 5 0 68 c0 85 23 206 48 256 59 114 155 143 300 93z m4310 4
c94 -47 145 -146 164 -319 l11 -102 67 -6 c83 -7 164 -42 226 -99 138 -127
121 -309 -41 -416 l-44 -29 61 -34 c130 -73 185 -173 176 -324 -9 -143 -48
-198 -198 -281 -47 -25 -87 -48 -89 -50 -2 -1 10 -25 26 -51 102 -166 89 -298
-34 -365 -54 -30 -157 -58 -214 -58 l-37 0 -4 -88 c-3 -69 -9 -97 -28 -131
-38 -68 -69 -86 -149 -86 -57 0 -78 5 -130 32 -55 29 -63 30 -68 15 -10 -28
-105 -165 -127 -185 -42 -36 -85 -49 -145 -41 -89 11 -94 14 -119 91 -16 50
-22 94 -22 155 0 99 -28 77 223 179 93 38 199 89 237 113 204 132 264 397 175
773 -14 56 -62 218 -109 360 -126 387 -165 572 -152 717 8 86 32 140 83 189
74 71 171 86 261 41z m-5191 -136 c22 -11 75 -55 117 -97 l76 -77 -46 -59
c-65 -85 -91 -140 -125 -273 -17 -65 -35 -134 -40 -154 l-10 -38 -62 0 c-234
1 -377 109 -377 285 0 147 95 326 208 392 94 55 175 62 259 21z m6133 -16
c212 -103 297 -432 152 -585 -70 -74 -234 -115 -356 -88 -28 6 -30 11 -52 107
-26 120 -68 224 -129 323 -25 40 -45 79 -45 85 0 17 94 105 144 136 21 13 55
29 75 37 52 19 156 12 211 -15z m1390 -775 c-43 -179 -169 -469 -293 -670
-154 -251 -386 -515 -581 -659 -138 -103 -314 -187 -445 -213 -44 -9 -44 -11
68 159 104 157 131 228 131 340 0 63 -15 145 -35 199 -5 12 -2 17 9 17 30 0
211 63 291 101 233 110 395 252 657 574 122 150 201 232 206 216 2 -6 -2 -35
-8 -64z m-9030 -55 c122 -207 278 -381 451 -504 124 -88 305 -182 454 -234 77
-27 119 -47 119 -56 -1 -7 -9 -40 -18 -73 -45 -167 -8 -298 147 -515 41 -58
71 -106 66 -108 -5 -2 -46 6 -91 17 -106 26 -283 114 -389 192 -98 72 -249
222 -332 329 -84 108 -441 741 -488 867 -47 124 -50 157 -11 177 21 12 29 12
35 3 4 -7 30 -49 57 -95z m1380 47 c41 -11 79 -24 84 -29 12 -12 -12 -106 -45
-172 -15 -31 -31 -72 -34 -90 -8 -40 14 -177 51 -322 18 -69 22 -102 15 -109
-6 -6 -57 -11 -118 -11 -90 0 -118 4 -168 23 -80 32 -154 106 -185 186 -48
125 -36 320 30 473 20 46 26 52 64 61 78 17 226 13 306 -10z m6428 5 c115 -48
165 -180 142 -381 -16 -148 -47 -221 -120 -287 -68 -61 -99 -70 -247 -70 -72
-1 -134 2 -138 5 -3 4 11 60 32 125 33 104 38 131 38 214 0 81 -6 115 -39 228
-21 73 -36 135 -33 139 4 3 39 14 79 24 93 23 236 24 286 3z m-6280 -860 c60
-7 68 -17 97 -124 27 -98 71 -186 125 -245 28 -31 54 -72 61 -96 l13 -42 -52
-48 c-115 -106 -244 -133 -364 -77 -149 69 -262 247 -261 408 0 127 75 210
208 230 49 8 68 7 173 -6z m6022 5 c117 -19 189 -83 204 -184 17 -109 -55
-276 -163 -378 -157 -147 -326 -149 -470 -3 l-53 54 17 51 c12 36 28 60 57 83
56 44 93 106 124 207 42 137 56 159 106 165 24 3 54 7 68 10 14 2 30 4 35 5 6
0 39 -4 75 -10z m-5563 -608 c23 -11 49 -30 58 -44 16 -26 111 -72 205 -101
30 -9 74 -27 98 -39 41 -21 43 -24 37 -56 -17 -89 -83 -179 -160 -216 -49 -23
-146 -31 -202 -16 -113 31 -193 130 -193 241 0 64 28 156 65 212 29 43 35 45
92 19z m5031 -43 c67 -132 79 -216 42 -288 -24 -48 -64 -79 -155 -122 -95 -44
-187 -46 -256 -6 -25 15 -58 45 -73 67 -25 36 -66 145 -66 175 0 17 81 53 163
71 84 19 121 37 172 85 38 36 108 79 130 80 6 0 25 -28 43 -62z m-6247 -13
c33 -9 100 -34 150 -55 126 -56 195 -76 337 -100 120 -19 203 -50 231 -84 12
-14 7 -19 -35 -37 -243 -105 -513 -185 -708 -209 -120 -15 -329 -8 -411 14
-76 21 -205 81 -205 97 0 19 124 171 193 236 147 137 286 180 448 138z m7560
5 c91 -17 190 -73 272 -153 66 -65 185 -223 175 -233 -15 -14 -148 -66 -223
-85 -79 -21 -113 -24 -275 -24 -203 0 -301 15 -495 76 -101 32 -365 135 -378
148 -4 4 17 31 47 59 51 49 58 52 93 46 59 -9 228 24 323 63 268 110 339 126
461 103z m-1872 -340 c26 -122 26 -156 2 -196 -36 -58 -105 -65 -259 -27 -60
15 -64 18 -88 66 -27 52 -58 181 -50 203 5 13 102 47 171 58 22 4 72 22 110
40 l70 33 12 -39 c7 -21 21 -83 32 -138z m-3819 122 c69 -21 142 -47 164 -56
l39 -16 -7 -60 c-17 -149 -63 -222 -148 -235 -44 -7 -142 8 -240 35 l-38 11 0
62 c0 82 67 310 90 303 8 -2 71 -22 140 -44z m-1010 -132 c0 -17 -59 -231 -91
-330 -59 -179 -91 -235 -198 -340 -160 -157 -351 -267 -529 -305 l-33 -7 7 84
c15 204 61 393 120 494 59 101 168 195 292 252 54 25 409 160 425 161 4 1 7
-3 7 -9z m5722 -19 c40 -16 127 -48 193 -71 176 -62 232 -87 308 -137 109 -72
176 -176 217 -339 21 -82 50 -296 50 -372 l0 -44 -32 7 c-18 4 -80 22 -138 41
-301 99 -475 283 -584 616 -38 116 -96 328 -90 328 2 0 36 -13 76 -29z m-5284
-186 c119 -57 122 -59 133 -99 46 -166 -87 -617 -255 -870 -50 -76 -144 -176
-164 -176 -11 0 -116 320 -146 447 -36 151 -50 281 -43 402 10 163 52 289 132
394 l35 46 93 -43 c50 -24 147 -69 215 -101z m5150 33 c100 -356 113 -584 46
-816 -28 -95 -92 -237 -146 -321 l-35 -53 -38 45 c-212 254 -340 614 -333 938
l3 124 40 20 c62 30 409 174 421 175 6 0 25 -51 42 -112z m-4748 -158 c74 -22
137 -33 213 -37 l107 -6 0 -166 c0 -197 -14 -373 -35 -456 -26 -102 -89 -214
-217 -383 l-123 -163 -19 23 c-36 45 -87 159 -106 241 -44 179 -37 363 26 742
34 203 40 235 46 235 2 0 50 -14 108 -30z m4089 -58 c58 -150 75 -264 74 -482
0 -154 -5 -220 -22 -314 -27 -154 -73 -346 -81 -346 -18 0 -106 68 -154 121
-80 86 -163 236 -218 389 -33 96 -48 231 -48 450 l0 205 103 2 c69 2 131 10
192 26 50 14 98 25 107 26 12 1 25 -21 47 -77z m-591 -1692 c89 -25 196 -77
279 -136 166 -118 268 -313 304 -582 15 -109 6 -375 -15 -497 -72 -404 -233
-765 -437 -979 -68 -72 -177 -156 -203 -156 -8 0 -16 56 -24 185 -21 317 -65
522 -152 701 -53 110 -160 254 -188 254 -23 0 -147 -64 -196 -102 -23 -18 -90
-80 -151 -138 -95 -93 -156 -140 -181 -140 -13 0 4 552 20 670 50 354 151 603
311 765 89 90 184 145 297 170 84 20 240 13 336 -15z m-2778 9 c243 -39 439
-189 559 -427 66 -132 117 -322 142 -532 12 -106 18 -614 7 -626 -15 -14 -80
36 -173 131 -109 112 -206 181 -310 220 l-65 25 -49 -71 c-180 -256 -271 -572
-271 -940 0 -76 -3 -139 -7 -139 -28 0 -131 76 -204 149 -217 218 -387 602
-455 1026 -22 136 -25 416 -5 525 36 204 100 339 216 456 167 169 384 241 615
203z m1466 -1475 c95 -143 147 -284 225 -612 23 -100 46 -179 49 -175 4 5 19
46 34 93 69 210 190 417 325 551 72 72 176 149 203 149 16 0 118 -140 152
-208 41 -82 80 -218 96 -337 8 -64 39 -534 40 -608 0 -14 18 -3 68 43 37 34
114 90 171 123 171 100 251 187 454 497 52 80 106 156 121 169 l26 24 0 -119
c-1 -310 -65 -585 -222 -952 -39 -90 -68 -165 -66 -168 12 -11 140 35 278 100
166 79 200 92 200 72 0 -25 -149 -313 -205 -396 -196 -292 -399 -442 -679
-505 l-29 -6 6 93 c3 51 16 152 29 223 18 104 22 168 23 322 0 105 -4 195 -8
200 -12 12 -219 -34 -350 -77 -214 -72 -332 -143 -548 -330 -182 -159 -163
-151 -184 -72 -80 300 -230 589 -365 704 l-43 37 -40 -31 c-55 -44 -155 -172
-211 -271 -61 -108 -123 -267 -155 -399 -14 -59 -29 -108 -33 -108 -3 0 -64
52 -134 116 -71 64 -171 144 -224 179 -133 89 -326 180 -444 210 -115 29 -250
35 -259 10 -14 -35 -29 -237 -23 -310 4 -44 23 -169 42 -278 20 -110 33 -201
30 -205 -10 -9 -107 17 -194 53 -250 102 -498 355 -637 647 -63 132 -88 208
-70 208 7 0 74 -31 148 -68 113 -57 192 -89 299 -118 15 -5 15 1 -4 68 -11 40
-47 143 -80 228 -90 233 -126 341 -148 448 -33 165 -53 462 -31 462 17 0 70
-70 192 -252 182 -272 335 -418 557 -534 61 -32 75 -36 82 -24 6 8 10 71 10
140 0 383 38 566 184 890 60 133 53 130 174 74 88 -40 157 -108 221 -215 70
-117 196 -365 238 -469 32 -80 38 -90 41 -65 8 79 65 332 97 430 45 139 138
331 203 415 27 36 76 90 108 119 l59 54 73 -79 c41 -43 98 -115 128 -160z
m-141 -1446 c125 -139 186 -299 286 -756 27 -122 7 -129 184 73 315 360 490
477 777 518 l37 6 7 -46 c12 -82 -3 -341 -24 -428 -98 -388 -398 -659 -855
-770 -133 -33 -322 -55 -468 -55 -617 0 -1089 237 -1278 642 -72 152 -86 226
-86 445 0 139 3 195 12 204 20 20 207 -31 327 -90 111 -54 248 -155 337 -247
31 -33 101 -113 154 -179 137 -168 165 -200 165 -189 0 5 9 68 20 139 56 364
144 583 299 748 19 20 40 37 47 37 7 0 33 -23 59 -52z"/>
<path d="M10074 14920 c-29 -12 -67 -104 -60 -145 10 -49 36 -66 110 -72 126
-11 186 20 186 96 0 75 -77 132 -176 130 -22 0 -48 -4 -60 -9z"/>
<path d="M90 10085 l0 -335 940 0 c745 0 940 3 940 13 0 20 -39 526 -45 595
l-7 62 -914 0 -914 0 0 -335z"/>
<path d="M18256 10368 c-6 -52 -46 -584 -46 -606 0 -9 234 -12 940 -12 l940 0
0 335 0 335 -914 0 -915 0 -5 -52z"/>
<path d="M10740 165 l-285 -73 298 -1 297 -1 0 75 c0 54 -4 75 -12 74 -7 0
-141 -34 -298 -74z"/>
</g>
</svg>
