<?xml version="1.0" encoding="UTF-8" standalone="no"?>
<svg xmlns:dc="http://purl.org/dc/elements/1.1/" xmlns:cc="http://creativecommons.org/ns#" xmlns:rdf="http://www.w3.org/1999/02/22-rdf-syntax-ns#" xmlns:svg="http://www.w3.org/2000/svg" xmlns="http://www.w3.org/2000/svg" xmlns:sodipodi="http://sodipodi.sourceforge.net/DTD/sodipodi-0.dtd" xmlns:inkscape="http://www.inkscape.org/namespaces/inkscape" width="210mm" height="297mm" viewBox="0 0 210 297" version="1.1" id="svg2979" inkscape:version="1.0.1 (3bc2e813f5, 2020-09-07)" sodipodi:docname="dibujo2.svg">
  <defs id="defs2973"><style id="style158" type="text/css">
   <![CDATA[
    .str0 {stroke:#FBC808;stroke-width:61.94;stroke-miterlimit:22.9256}
    .fil5 {fill:#FEFEFE}
    .fil1 {fill:#014026}
    .fil2 {fill:#E6E6E6}
    .fil0 {fill:white}
    .fil4 {fill:#E6E6E6;fill-rule:nonzero}
    .fil3 {fill:white;fill-opacity:0.200000}
   ]]>
  </style>

  
  
  
  
  
  
  
  
 
   
   
   
   
   
   
   
   
   
   
   
   
   
   
   
   
   
   
   
   
   
   
   
   
   
   
   
   
   
   
   
   
   
   
   
   
   
   
   
   
   
  
   
   
   
   
   
   
   
   
   
   
   
   
   
   
   
   
   
   
   
   
   
  </defs>
  <sodipodi:namedview id="base" pagecolor="#ffffff" bordercolor="#666666" borderopacity="1.0" inkscape:pageopacity="0.0" inkscape:pageshadow="2" inkscape:zoom="0.70710678" inkscape:cx="252.15617" inkscape:cy="458.29396" inkscape:document-units="mm" inkscape:current-layer="layer1" inkscape:document-rotation="0" showgrid="false" inkscape:window-width="1920" inkscape:window-height="1057" inkscape:window-x="1912" inkscape:window-y="-8" inkscape:window-maximized="1" />
  <metadata id="metadata2976">
    <rdf:RDF>
      <cc:Work rdf:about="">
        <dc:format>image/svg+xml</dc:format>
        <dc:type rdf:resource="http://purl.org/dc/dcmitype/StillImage" />
        <dc:title></dc:title>
      </cc:Work>
    </rdf:RDF>
  </metadata>
  <g inkscape:label="Capa 1" inkscape:groupmode="layer" id="layer1">
    <polygon id="polygon163" class="fil0 str0" points="1856.6,2073 1021.8,2285.2 186.87,2073 33.38,30.97 1021.8,30.97 2010.1,30.97 " style="clip-rule:evenodd;fill-rule:evenodd;image-rendering:optimizeQuality;shape-rendering:geometricPrecision;text-rendering:geometricPrecision" transform="matrix(0.10096627,0,0,0.10096627,1.9587173,9.39509)" />
    <polygon id="polygon165" class="fil1" points="1750,1973.2 1021.8,2162.2 293.51,1973.2 159.63,153.96 1021.8,153.96 1883.9,153.96 " style="clip-rule:evenodd;fill-rule:evenodd;image-rendering:optimizeQuality;shape-rendering:geometricPrecision;text-rendering:geometricPrecision" transform="matrix(0.10096627,0,0,0.10096627,1.9587173,9.39509)" />
    <polygon id="polygon293" class="fil3" points="1021.8,283.67 1741.1,283.67 1629.4,1874.8 1021.8,2032.5 " style="clip-rule:evenodd;fill-rule:evenodd;image-rendering:optimizeQuality;shape-rendering:geometricPrecision;text-rendering:geometricPrecision" transform="matrix(0.10096627,0,0,0.10096627,1.9587173,9.39509)" />
    <path id="fuego" class="fil0" d="m 126.77322,192.75993 c 2.04962,-4.60103 3.68729,-8.36202 3.43588,-14.40788 c -0.36852,0.35439 -0.36852,0.30996 -0.76734,0.87033 l -0.42709,0.64921 c -5.13211,8.11163 -4.70402,4.71916 -8.47915,8.62757 c -0.47151,-5.27953 0.16256,-10.41165 -3.37732,-13.62641 c -3.11178,1.48925 -5.39765,5.42694 -6.50324,9.54131 c -1.48925,-6.04586 -1.6518,-8.44987 -5.45621,-12.16643 c -3.06736,2.06476 -4.8373,7.18173 -5.471364,12.22499 c -0.619933,-1.9022 -1.681089,-4.01139 -2.654404,-5.72176 c -1.16515,-2.06476 -1.784074,-3.22991 -4.482902,-3.96696 c -2.684693,5.88431 -2.595843,6.19428 -2.801814,13.53857 c -5.781329,-2.507 -7.211011,-6.68094 -9.09908,-9.02538 l -0.678494,-0.66335 c -0.04443,7.65426 1.991055,8.71541 3.332897,14.09893 c -3.038075,-0.69263 -3.377322,-1.47512 -5.529923,-2.27174 c 1.459973,4.79287 5.338087,9.68872 10.603478,10.61761 c -0.515938,-3.70142 -1.371122,-5.47136 -0.604788,-9.3939 c 2.99365,-0.58964 7.476552,1.96178 9.688723,3.77513 l 2.300012,2.10818 c 0.05856,-0.10299 0.221119,0.19183 0.354389,0.28068 c 0.70778,-3.84883 2.64027,-7.69868 5.04327,-9.45347 c 2.55142,1.96178 4.10024,5.83989 4.95542,9.37977 c 3.31775,-2.59585 4.55661,-5.08769 12.32899,-6.44468 c 0.53109,4.89585 -0.3978,5.69248 -0.58964,9.80685 c 5.52992,-0.88446 8.6417,-5.88431 10.61761,-10.57419 c -1.8285,0.25039 -2.78768,1.72551 -5.7369,2.18289 v 0.0151 z" style="clip-rule:evenodd;fill-rule:evenodd;stroke-width:0.100966;image-rendering:optimizeQuality;shape-rendering:geometricPrecision;text-rendering:geometricPrecision" />
    <path id="fuego2" class="fil0" d="m 89.581285,193.52728 c -1.622528,9.90984 5.95802,15.04195 15.617465,15.02782 c 9.42318,-0.0152 16.84117,-4.92514 15.54375,-14.96825 c -5.89945,0.5018 -8.36202,5.25024 -11.2961,8.11062 c -1.04702,-4.20323 -1.40141,-8.17019 -4.24664,-10.66204 c -2.74326,2.34444 -3.64287,6.17913 -4.23251,10.88315 c -2.109184,-2.02033 -4.689882,-7.47655 -11.36981,-8.3913 h -0.01515 z" style="clip-rule:evenodd;fill-rule:evenodd;stroke-width:0.100966;image-rendering:optimizeQuality;shape-rendering:geometricPrecision;text-rendering:geometricPrecision" />
    <path id="path171" class="fil0" d="m 111.5576,176.3933 c 2.59585,-1.35699 2.31516,-2.96437 6.13471,-4.52733 c 3.27333,2.94923 3.92254,8.25803 4.04067,13.34673 c 5.67734,-2.24145 10.70647,-17.22484 5.9136,-24.00877 c -3.14106,-4.43847 -17.136,-9.11422 -16.08898,15.18937 z" style="clip-rule:evenodd;fill-rule:evenodd;stroke-width:0.100966;image-rendering:optimizeQuality;shape-rendering:geometricPrecision;text-rendering:geometricPrecision" />
    <path id="path173" class="fil0" d="m 98.710655,176.23175 c 0.250397,-5.61877 0.08784,-11.19312 -2.728108,-15.08638 c -2.595843,-3.58329 -8.362027,-4.86657 -12.387552,-1.19443 c -6.179136,5.63291 -1.415547,22.51952 5.02913,25.24763 c -0.162556,-5.85504 0.870329,-9.54131 3.745848,-13.36087 c 1.341842,0.35439 2.492858,1.0763 3.480308,1.93149 c 1.651808,1.43069 1.371122,1.96177 2.875519,2.46256 z" style="clip-rule:evenodd;fill-rule:evenodd;stroke-width:0.100966;image-rendering:optimizeQuality;shape-rendering:geometricPrecision;text-rendering:geometricPrecision" />
    <path id="path175" class="fil0" d="m 122.14897,126.63712 c 3.52473,0.56037 6.72435,-2.60998 6.98989,-5.94287 c 0.64921,-8.34688 -10.50049,-21.752175 4.96956,-36.145927 c 1.25299,-1.16515 2.06476,-2.374726 3.30362,-3.451027 c 6.62136,-5.781328 16.50192,-13.08119 12.46125,-25.527302 c -0.64921,1.489253 -0.56036,4.143656 -1.20957,6.07615 c -5.02913,15.041955 -35.26045,27.665768 -25.80799,47.117926 c 9.3202,19.15633 -0.89961,13.02162 -0.72292,17.87305 h 0.0151 z" style="clip-rule:evenodd;fill-rule:evenodd;stroke-width:0.100966;image-rendering:optimizeQuality;shape-rendering:geometricPrecision;text-rendering:geometricPrecision" />
    <path id="path177" class="fil0" d="m 83.475855,109.35271 c -1.091446,3.99624 -5.810609,14.51188 2.448432,17.13599 c 1.459972,0.47151 1.754794,0.14741 2.256596,-0.0737 c -0.354392,-2.43329 0.663348,-0.89961 -1.769939,-2.00519 c -1.519542,-0.69263 -1.297416,-0.0888 -2.271741,-1.37113 c -5.632908,-7.44727 14.01008,-16.88559 -0.825904,-35.599692 C 73.742706,75.375538 61.929653,70.87749 60.705941,55.422584 c -4.689883,11.429381 3.908405,17.195565 8.583143,22.637647 c 4.217361,4.910999 19.289606,12.668238 14.186771,31.308629 v -0.0151 z" style="clip-rule:evenodd;fill-rule:evenodd;stroke-width:0.100966;image-rendering:optimizeQuality;shape-rendering:geometricPrecision;text-rendering:geometricPrecision" />
    <path id="path179" class="fil0" d="m 69.746461,99.751824 c 0.944035,-4.748443 1.578103,-3.156205 3.244047,-6.120575 C 71.796077,84.016231 55.41228,79.7393 54.586376,64.579215 c -2.285876,6.931334 -0.825904,15.883003 2.123321,21.885448 c 2.772533,5.648053 7.992489,10.529773 13.051909,13.287161 z" style="clip-rule:evenodd;fill-rule:evenodd;stroke-width:0.100966;image-rendering:optimizeQuality;shape-rendering:geometricPrecision;text-rendering:geometricPrecision" />
    <path id="path181" class="fil0" d="m 140.35318,99.678119 c 3.53988,-1.0763 5.54507,-3.804409 7.7421,-5.810609 c 8.18432,-7.447272 9.29091,-18.006324 7.84508,-29.259015 c -1.04702,3.834699 -0.76735,5.265391 -2.80182,8.789114 c -2.3303,4.055815 -7.8158,9.673578 -11.20826,12.726798 c -2.13847,1.917349 -4.12952,3.716568 -4.64546,7.506842 c 1.72551,2.96437 2.6544,1.504397 3.09663,6.031725 l -0.0293,0.01514 z" style="clip-rule:evenodd;fill-rule:evenodd;stroke-width:0.100966;image-rendering:optimizeQuality;shape-rendering:geometricPrecision;text-rendering:geometricPrecision" />
    <path id="path183" class="fil0" d="m 131.90231,126.19287 c 4.40919,-0.11813 5.25024,-2.37473 3.00879,-5.50064 c 1.87293,-1.0026 3.25919,-1.31256 3.42175,-3.68628 c 0.17669,-2.49286 -0.98846,-3.4066 -2.81696,-4.29208 c 4.06995,-2.06476 1.84364,-6.47395 -2.43329,-6.35582 c 0.16256,-6.695076 -4.99985,-5.92874 -5.7369,-3.11178 c -0.70777,2.68368 1.01774,7.35842 1.78407,9.65944 c 1.03188,3.06736 2.34545,7.10803 1.03188,10.33794 c -1.19443,2.93509 -4.04067,3.17034 -7.24029,4.71916 c -0.22112,1.96177 -0.0889,1.87292 0.50079,3.657 c 1.60738,0.16255 1.78407,0.56036 3.02293,-0.58964 l 1.10659,-1.71037 c 0.0444,-0.20698 0.14741,-0.2504 0.2504,-0.36853 c 1.254,1.04702 4.61617,1.84364 4.12952,-2.77253 l -0.0293,0.0151 z" style="clip-rule:evenodd;fill-rule:evenodd;stroke-width:0.100966;image-rendering:optimizeQuality;shape-rendering:geometricPrecision;text-rendering:geometricPrecision" />
    <path id="path185" class="fil0" d="m 87.546815,127.76794 c -5.500643,-1.17928 -9.128361,-3.76099 -7.594683,-10.55905 c 0.95817,-4.27693 4.12952,-10.29351 2.639258,-15.01267 c -4.203226,-2.46257 -5.486507,0.13327 -5.368376,4.18808 c -3.627718,-0.22112 -6.429532,2.2263 -2.580698,6.53353 c -3.98211,1.40141 -3.907395,6.42953 0.692628,7.44727 c -0.08885,0.16255 -0.221116,0.3241 -0.294821,0.45738 c -0.07371,0.11813 -0.191836,0.29482 -0.279677,0.44223 c -1.533677,2.80181 -0.442232,5.16139 3.656999,4.79287 l 0.07371,3.0825 c 1.651808,0.51593 2.580698,0.7522 4.335492,0.0293 c 0.914754,1.56295 0.899609,2.63926 3.642863,2.49285 c 1.091445,-1.53367 1.031875,-1.78407 1.0763,-3.89326 z" style="clip-rule:evenodd;fill-rule:evenodd;stroke-width:0.100966;image-rendering:optimizeQuality;shape-rendering:geometricPrecision;text-rendering:geometricPrecision" />
    <path id="path187" class="fil0" d="m 74.347494,93.824095 c 8.848684,3.02293 2.787679,4.645458 8.273176,6.16399 C 81.189978,88.352732 69.761606,79.946281 62.239619,72.601994 C 59.703346,70.109137 58.036393,66.172462 57.609306,61.054482 c -4.513192,16.575633 15.454907,22.268111 16.723043,32.768603 h 0.01515 z" style="clip-rule:evenodd;fill-rule:evenodd;stroke-width:0.100966;image-rendering:optimizeQuality;shape-rendering:geometricPrecision;text-rendering:geometricPrecision" />
    <path id="path189" class="fil0" d="m 135.82989,94.059346 c 1.60739,-11.487942 20.07109,-14.850119 17.16528,-32.400076 c -0.85518,1.799219 -0.76633,4.306211 -1.91735,6.576943 c -4.42434,8.730553 -22.90218,18.19816 -23.43326,31.987127 c 5.20582,-2.448435 1.04702,-5.147264 8.18433,-6.163994 z" style="clip-rule:evenodd;fill-rule:evenodd;stroke-width:0.100966;image-rendering:optimizeQuality;shape-rendering:geometricPrecision;text-rendering:geometricPrecision" />
    <path id="path191" class="fil0" d="m 63.817722,109.48598 c 0.428097,-5.83989 0.92889,-6.42953 5.220966,-8.40645 C 65.337264,97.688074 64.024703,98.409983 56.017068,90.270082 C 54.380405,88.618274 53.598926,87.261287 52.168234,85.93459 c -0.92889,9.275772 4.438477,20.10037 11.650498,23.55139 z" style="clip-rule:evenodd;fill-rule:evenodd;stroke-width:0.100966;image-rendering:optimizeQuality;shape-rendering:geometricPrecision;text-rendering:geometricPrecision" />
    <path id="path193" class="fil0" d="m 146.81502,109.29314 c 6.47396,-4.26179 11.76863,-11.768632 11.38496,-23.41812 c -3.36218,2.654403 -1.06216,3.95182 -16.90074,15.08638 c 2.47771,1.66594 4.05581,1.5781 4.94028,5.81061 l 0.58964,2.50699 l -0.0151,0.0152 z" style="clip-rule:evenodd;fill-rule:evenodd;stroke-width:0.100966;image-rendering:optimizeQuality;shape-rendering:geometricPrecision;text-rendering:geometricPrecision" />
    <path id="path195" class="fil0" d="m 145.6943,120.59934 c 2.47771,-0.67849 3.59844,-1.93148 5.29366,-3.55401 c 3.64286,-3.49546 7.9935,-12.38755 7.80166,-17.726651 c -2.71397,3.362181 -2.1526,4.217361 -5.5592,6.960611 c -2.12332,1.72552 -4.88172,3.24405 -6.96061,5.04327 c 2.15361,3.30362 1.78407,6.04687 -0.57551,9.27577 z" style="clip-rule:evenodd;fill-rule:evenodd;stroke-width:0.100966;image-rendering:optimizeQuality;shape-rendering:geometricPrecision;text-rendering:geometricPrecision" />
    <path id="path197" class="fil0" d="m 56.783402,106.15309 c -3.126925,-2.65441 -3.996245,-5.23511 -5.339096,-6.444681 c 0.250396,8.111631 7.491697,19.540001 13.184175,20.896991 c -2.462567,-4.42434 -2.816959,-4.80802 -0.604788,-9.63017 c -2.404007,-1.25299 -5.456217,-3.30361 -7.240291,-4.80801 z" style="clip-rule:evenodd;fill-rule:evenodd;stroke-width:0.100966;image-rendering:optimizeQuality;shape-rendering:geometricPrecision;text-rendering:geometricPrecision" />
    <path id="path199" class="fil0" d="m 142.49367,130.13056 c 7.10802,-1.10659 14.3049,-11.07499 15.86786,-18.84738 c -2.80182,2.21217 -5.41179,8.7457 -13.56785,10.5742 c 1.48925,4.24765 -0.88446,5.64805 -2.28588,8.27318 h -0.0151 z" style="clip-rule:evenodd;fill-rule:evenodd;stroke-width:0.100966;image-rendering:optimizeQuality;shape-rendering:geometricPrecision;text-rendering:geometricPrecision" />
    <path id="path201" class="fil0" d="m 65.49881,121.9018 c -5.736903,-1.60738 -10.11682,-5.04326 -12.653093,-10.32279 c -0.545217,0.56037 -1.268136,-0.19183 0.265542,3.45103 l 4.513192,7.97835 c 1.917349,2.55142 5.265391,6.38511 10.1461,7.12318 c -1.401411,-2.21218 -3.878114,-4.27694 -2.285876,-8.21462 l 0.01515,-0.0152 z" style="clip-rule:evenodd;fill-rule:evenodd;stroke-width:0.100966;image-rendering:optimizeQuality;shape-rendering:geometricPrecision;text-rendering:geometricPrecision" />
    <path id="path203" class="fil0" d="m 131.37728,136.81452 c -0.45738,5.07255 1.51853,9.65945 4.23251,12.77123 c 3.52473,-5.02913 2.96437,-9.49689 1.15,-15.08638 c -0.97331,0.47151 -4.88172,1.99105 -5.38251,2.31515 z" style="clip-rule:evenodd;fill-rule:evenodd;stroke-width:0.100966;image-rendering:optimizeQuality;shape-rendering:geometricPrecision;text-rendering:geometricPrecision" />
    <path id="path205" class="fil0" d="m 74.170803,149.52618 c 3.421747,-2.34444 5.839889,-10.95686 4.659594,-12.6531 l -4.85143,-2.28587 c -3.730703,4.17394 -1.312561,10.69232 0.191836,14.92382 z" style="clip-rule:evenodd;fill-rule:evenodd;stroke-width:0.100966;image-rendering:optimizeQuality;shape-rendering:geometricPrecision;text-rendering:geometricPrecision" />
    <path id="path207" class="fil0" d="m 124.32984,138.09679 c 0.16255,3.18549 -0.28069,5.5895 0.91475,8.34689 c 1.01774,2.34544 2.03548,4.08509 3.99625,5.14726 c 1.18029,-4.37992 2.07889,-9.51204 -0.10299,-14.18677 c -1.37112,0.45737 -2.77253,0.8259 -4.807,0.69262 z" style="clip-rule:evenodd;fill-rule:evenodd;stroke-width:0.100966;image-rendering:optimizeQuality;shape-rendering:geometricPrecision;text-rendering:geometricPrecision" />
    <path id="path209" class="fil0" d="m 81.51509,151.66666 c 4.232506,-5.54507 4.335491,-4.95542 4.350636,-13.50828 c -2.625123,0.0586 -2.949224,-0.29482 -4.969559,-0.81076 c -0.722919,4.54248 -2.374727,10.47021 0.618923,14.32005 z" style="clip-rule:evenodd;fill-rule:evenodd;stroke-width:0.100966;image-rendering:optimizeQuality;shape-rendering:geometricPrecision;text-rendering:geometricPrecision" />
    <path id="path211" class="fil0" d="m 155.2659,134.21969 c -4.4829,-7.53612 -9.12836,-3.43588 -11.38495,-2.86037 c -4.42435,1.10558 -2.37473,-0.6785 -4.57176,1.53367 c 4.32136,1.94663 9.89571,3.92254 15.24894,1.72552 l 0.70777,-0.39781 z" style="clip-rule:evenodd;fill-rule:evenodd;stroke-width:0.100966;image-rendering:optimizeQuality;shape-rendering:geometricPrecision;text-rendering:geometricPrecision" />
    <path id="path213" class="fil0" d="m 137.83912,133.71486 c 1.37113,4.80801 2.02034,9.90984 9.80686,11.45866 c -0.4281,-9.95426 -3.56916,-8.73055 -9.80686,-11.45866 z" style="clip-rule:evenodd;fill-rule:evenodd;stroke-width:0.100966;image-rendering:optimizeQuality;shape-rendering:geometricPrecision;text-rendering:geometricPrecision" />
    <path id="path215" class="fil0" d="m 55.014473,134.21969 c 4.659593,3.06735 12.03316,0.27968 15.956709,-1.44483 c -1.371122,-1.28328 -2.625123,-0.87033 -4.881719,-1.51853 c -2.935089,-0.8259 -6.090285,-4.35064 -11.07499,2.96437 z" style="clip-rule:evenodd;fill-rule:evenodd;stroke-width:0.100966;image-rendering:optimizeQuality;shape-rendering:geometricPrecision;text-rendering:geometricPrecision" />
    <path id="path217" class="fil0" d="m 62.638436,145.18463 c 3.05221,-0.61893 5.161396,-2.2566 6.902054,-3.96697 c 1.475117,-1.45997 2.271741,-4.99985 2.93509,-7.52098 c -5.560213,2.27074 -9.541313,2.0789 -9.821999,11.48795 z" style="clip-rule:evenodd;fill-rule:evenodd;stroke-width:0.100966;image-rendering:optimizeQuality;shape-rendering:geometricPrecision;text-rendering:geometricPrecision" />
    <path id="path219" class="fil0" d="m 137.05159,105.09092 c 1.01774,1.51853 1.9022,3.0088 2.3303,5.88431 c 10.07239,1.53368 3.80441,-13.537553 -2.3303,-5.88431 z" style="clip-rule:evenodd;fill-rule:evenodd;stroke-width:0.100966;image-rendering:optimizeQuality;shape-rendering:geometricPrecision;text-rendering:geometricPrecision" />
    <path id="path221" class="fil0" d="m 70.690496,111.08832 c 0.92889,-3.48031 0.649213,-3.8347 2.536273,-6.00245 c -1.341842,-1.35698 -2.609978,-3.4803 -5.500643,-1.59325 c -1.902204,1.25401 -4.689883,7.9198 2.96437,7.59469 z" style="clip-rule:evenodd;fill-rule:evenodd;stroke-width:0.100966;image-rendering:optimizeQuality;shape-rendering:geometricPrecision;text-rendering:geometricPrecision" />
    <path id="path223" class="fil0" d="m 135.5068,128.05065 c 5.20582,6.9899 13.1549,-7.78652 2.99365,-5.75104 c -0.78148,1.26814 -0.64921,2.24145 -1.3277,3.30362 c -1.1803,1.84364 -1.01774,0.19183 -1.66595,2.44843 z" style="clip-rule:evenodd;fill-rule:evenodd;stroke-width:0.100966;image-rendering:optimizeQuality;shape-rendering:geometricPrecision;text-rendering:geometricPrecision" />
    <path id="path225" class="fil0" d="m 71.900072,122.34606 c -10.02797,-2.27074 -3.008795,12.62381 2.787679,5.63391 c -0.767344,-2.04961 -0.692629,-0.75219 -1.710369,-2.6544 c -0.589643,-1.09144 -0.560363,-1.93148 -1.062165,-2.9785 h -0.01515 z" style="clip-rule:evenodd;fill-rule:evenodd;stroke-width:0.100966;image-rendering:optimizeQuality;shape-rendering:geometricPrecision;text-rendering:geometricPrecision" />
    <path id="path227" class="fil0" d="m 70.483515,120.64982 c -1.843644,-7.04946 -0.471512,-4.21736 0.102986,-8.00763 c -2.03548,-0.72292 -3.126926,-0.7522 -5.05841,-0.30997 c -2.182891,4.54247 -0.752199,9.4979 4.955424,8.30246 z" style="clip-rule:evenodd;fill-rule:evenodd;stroke-width:0.100966;image-rendering:optimizeQuality;shape-rendering:geometricPrecision;text-rendering:geometricPrecision" />
    <path id="path229" class="fil0" d="m 139.77768,120.7104 c 3.77512,0.63407 5.76618,-0.51593 5.92874,-4.73431 c 0.16255,-4.30621 -2.507,-4.43847 -5.97317,-3.39145 l 0.5018,1.71037 c 1.0026,3.12591 0.38367,3.39145 -0.45737,6.40025 z" style="clip-rule:evenodd;fill-rule:evenodd;stroke-width:0.100966;image-rendering:optimizeQuality;shape-rendering:geometricPrecision;text-rendering:geometricPrecision" />
    <path id="path231" class="fil0" d="m 74.51005,103.73393 c 0.899609,-1.31256 0.707773,-1.66594 2.03548,-2.86138 c 1.252991,-1.10659 1.784074,-0.87033 2.846239,-2.03548 c -4.866574,-7.536122 -11.517222,1.93148 -4.880709,4.89585 z" style="clip-rule:evenodd;fill-rule:evenodd;stroke-width:0.100966;image-rendering:optimizeQuality;shape-rendering:geometricPrecision;text-rendering:geometricPrecision" />
    <path id="path233" class="fil0" d="m 132.2254,99.94366 c 3.62772,2.24145 1.62253,1.44483 3.65801,3.84883 c 6.51838,-4.89585 -0.50181,-11.193116 -5.08769,-5.058406 l 1.43069,1.209576 z" style="clip-rule:evenodd;fill-rule:evenodd;stroke-width:0.100966;image-rendering:optimizeQuality;shape-rendering:geometricPrecision;text-rendering:geometricPrecision" />
    <path id="path235" class="fil0" d="m 108.03388,78.265192 c 0.79662,4.556608 9.83613,4.365782 10.16125,-0.678493 c -1.56296,0.221116 -2.99365,0.678493 -4.67474,0.796624 c -2.06476,0.133275 -3.84884,-0.428097 -5.48651,-0.118131 z" style="clip-rule:evenodd;fill-rule:evenodd;stroke-width:0.100966;image-rendering:optimizeQuality;shape-rendering:geometricPrecision;text-rendering:geometricPrecision" />
    <path id="path237" class="fil0" d="m 129.01467,131.62486 c 0.45738,3.02293 2.38886,4.06995 5.19068,2.49285 c 2.404,-1.34184 1.16515,-3.55401 0.22111,-5.16139 c -1.9022,0.78148 -1.03187,1.00259 -2.60997,1.69623 c -1.10659,0.48666 -1.44483,0.13227 -2.80182,0.95817 v 0.0152 z" style="clip-rule:evenodd;fill-rule:evenodd;stroke-width:0.100966;image-rendering:optimizeQuality;shape-rendering:geometricPrecision;text-rendering:geometricPrecision" />
    <path id="path239" class="fil0" d="m 75.867037,128.91896 c -4.100241,5.82474 4.585888,8.3176 5.368376,2.68368 l -0.692628,-0.36852 c -2.094041,-0.85519 1.828499,0.63407 -0.781479,-0.26554 c -4.129521,-1.4307 -1.106591,-0.94404 -3.907395,-2.04962 h 0.01515 z" style="clip-rule:evenodd;fill-rule:evenodd;stroke-width:0.100966;image-rendering:optimizeQuality;shape-rendering:geometricPrecision;text-rendering:geometricPrecision" />
    <path id="path241" class="fil0" d="m 82.385419,131.75611 c -0.531083,2.12332 -1.062165,2.34545 -0.841049,4.27693 c 3.495452,0.98846 4.674738,0.92889 4.895854,-2.84624 c -1.01774,-0.5755 -2.964369,-0.94403 -4.06995,-1.43069 z" style="clip-rule:evenodd;fill-rule:evenodd;stroke-width:0.100966;image-rendering:optimizeQuality;shape-rendering:geometricPrecision;text-rendering:geometricPrecision" />
    <path id="path243" class="fil0" d="m 123.82501,133.17974 c 0.0737,1.3277 0.3978,2.09404 0.84104,2.87552 c 5.29367,1.68108 3.95182,-1.10659 3.24405,-4.36478 c -2.43329,1.31257 -2.41814,0.61893 -4.08509,1.47411 z" style="clip-rule:evenodd;fill-rule:evenodd;stroke-width:0.100966;image-rendering:optimizeQuality;shape-rendering:geometricPrecision;text-rendering:geometricPrecision" />
    <path id="path245" class="fil0" d="m 109.63924,77.660404 c 11.79791,-0.04443 11.36982,-4.866574 17.81449,-1.784074 c -0.60479,-2.03548 -2.1406,-2.369855 -4.11437,-3.465162 c -4.4242,-2.406809 -16.45006,3.116006 -13.70012,5.263372 V 77.6594 Z" style="clip-rule:evenodd;fill-rule:evenodd;stroke-width:0.100966;image-rendering:optimizeQuality;shape-rendering:geometricPrecision;text-rendering:geometricPrecision" sodipodi:nodetypes="cccccc" />
    <path id="path247" class="fil0" d="m 104.84335,70.420113 c 3.70142,-0.840039 4.14365,3.790274 -0.30997,2.404007 c -0.53108,-0.663348 -0.47151,-1.444827 0.30997,-2.404007 z m -14.246344,0.294822 c 1.031875,1.946629 3.303616,3.952829 6.665793,4.292076 C 102.21822,110.93182 84.50672,126.2686 88.842212,153.74253 c 2.609978,1.29741 6.415397,1.23885 9.335341,7.25543 c 2.315157,4.77773 2.020337,9.24649 1.857777,14.89455 c 0.82591,-0.94404 1.5044,-2.35958 2.24145,-3.48031 c 0.56037,-0.85518 0.7522,-1.13587 1.32771,-1.79922 l 1.5781,-1.48925 c 2.41815,1.87292 3.0825,4.46877 5.01399,6.96061 c 0.0586,-5.57434 -0.51594,-9.98354 1.72551,-14.83598 c 1.76994,-3.81955 4.52733,-6.47396 9.42318,-7.10803 c 4.42435,-25.15877 -9.36462,-34.28713 -8.93652,-71.435651 c -3.42175,-1.04702 -4.98471,-1.444827 -5.61877,-5.250246 c 0.78964,-3.158167 4.62496,-4.003757 7.8158,-5.663198 c -1.69624,-6.031725 -7.93393,-6.282121 -11.66565,-4.335491 c -4.689881,2.448432 -5.766181,5.442082 -12.343124,3.259191 z" style="clip-rule:evenodd;fill-rule:evenodd;stroke-width:0.100966;image-rendering:optimizeQuality;shape-rendering:geometricPrecision;text-rendering:geometricPrecision" sodipodi:nodetypes="ccccccccccccccccccc" />
    <path id="path250" class="fil2" d="m 105.12605,172.30417 c -3.01889,2.09808 -4.7646,7.17062 -5.392606,12.17047 c -0.618924,-1.9022 -1.681089,-4.01139 -2.654404,-5.72176 c -1.16515,-2.06476 -1.784074,-3.22991 -4.482902,-3.96696 c -2.683684,5.88431 -2.595843,6.19428 -2.801814,13.53756 c -5.781329,-2.507 -7.211011,-6.67993 -9.09908,-9.02538 l -0.678494,-0.66335 c -0.04443,7.65325 1.991055,8.71541 3.332897,14.09893 c -3.038075,-0.69364 -3.377322,-1.47512 -5.529923,-2.27174 c 1.459973,4.79287 5.338087,9.68872 10.603478,10.61761 c -0.515938,-3.70142 -1.371122,-5.47136 -0.604788,-9.3939 c 2.99365,-0.58964 7.477562,1.96178 9.688723,3.77513 l 2.300012,2.10818 c 0.05856,-0.10299 0.221121,0.19183 0.354391,0.27967 c 0.6997,-3.80744 2.59786,-7.61386 4.96552,-9.39491 v -16.15258 z" style="clip-rule:evenodd;fill-rule:evenodd;stroke-width:0.100966;image-rendering:optimizeQuality;shape-rendering:geometricPrecision;text-rendering:geometricPrecision" />
    <path id="path252" class="fil2" d="m 89.581285,193.52728 c -1.618489,9.88358 5.917633,15.01368 15.538705,15.02681 v -17.45101 c -2.68166,2.35049 -3.57016,6.15591 -4.15476,10.8155 c -2.109183,-2.02033 -4.689881,-7.47756 -11.36981,-8.3913 h -0.01515 z" style="clip-rule:evenodd;fill-rule:evenodd;stroke-width:0.100966;image-rendering:optimizeQuality;shape-rendering:geometricPrecision;text-rendering:geometricPrecision" />
    <path id="path254" class="fil2" d="m 98.709646,176.23175 c 0.250396,-5.61877 0.08885,-11.19312 -2.728109,-15.08638 c -2.595843,-3.58329 -8.362027,-4.86657 -12.387552,-1.19443 c -6.179135,5.63291 -1.415547,22.51952 5.02913,25.24662 c -0.162556,-5.85403 0.870329,-9.54131 3.745849,-13.36087 c 1.341841,0.35439 2.491847,1.0763 3.480307,1.93149 c 1.651808,1.43069 1.371122,1.96177 2.875519,2.46256 h -0.01514 z" style="clip-rule:evenodd;fill-rule:evenodd;stroke-width:0.100966;image-rendering:optimizeQuality;shape-rendering:geometricPrecision;text-rendering:geometricPrecision" />
    <path id="path256" class="fil2" d="m 83.475855,109.35271 c -1.091446,3.99624 -5.810609,14.51188 2.448432,17.13599 c 1.459972,0.47151 1.754794,0.14741 2.255586,-0.0737 c -0.353382,-2.43329 0.663349,-0.89961 -1.769938,-2.0062 c -1.519543,-0.69263 -1.298427,-0.0878 -2.271742,-1.37112 c -5.632908,-7.44728 14.01008,-16.8856 -0.825904,-35.599702 C 73.741697,75.374528 61.928643,70.876481 60.704932,55.421574 c -4.689883,11.429382 3.908404,17.195565 8.583142,22.636638 c 4.217362,4.910999 19.289606,12.668237 14.186771,31.308628 v -0.0151 z" style="clip-rule:evenodd;fill-rule:evenodd;stroke-width:0.100966;image-rendering:optimizeQuality;shape-rendering:geometricPrecision;text-rendering:geometricPrecision" />
    <path id="path258" class="fil2" d="m 69.746461,99.751824 c 0.944035,-4.748443 1.578103,-3.156205 3.244047,-6.120575 C 71.796077,84.016231 55.41228,79.7393 54.586376,64.579215 c -2.285876,6.931334 -0.825904,15.883003 2.123321,21.884439 c 2.772533,5.648053 7.992489,10.529772 13.051909,13.287161 h -0.01515 z" style="clip-rule:evenodd;fill-rule:evenodd;stroke-width:0.100966;image-rendering:optimizeQuality;shape-rendering:geometricPrecision;text-rendering:geometricPrecision" />
    <path id="path260" class="fil2" d="m 87.546815,127.76794 c -5.500643,-1.18029 -9.128361,-3.76099 -7.594683,-10.55905 c 0.95817,-4.27693 4.128511,-10.29351 2.639258,-15.01267 c -4.203226,-2.46257 -5.485497,0.13327 -5.368376,4.18808 c -3.627718,-0.22112 -6.429532,2.22731 -2.580698,6.53353 c -3.98211,1.4004 -3.908405,6.42953 0.692628,7.44727 c -0.08784,0.16255 -0.221116,0.3241 -0.294821,0.45738 c -0.07371,0.11813 -0.191836,0.29482 -0.280686,0.44223 c -1.533678,2.80181 -0.442233,5.16139 3.658008,4.79287 l 0.07371,3.0825 c 1.651808,0.51593 2.580698,0.7522 4.335492,0.0293 c 0.914754,1.56295 0.899609,2.63926 3.642863,2.49285 c 1.091445,-1.53367 1.031875,-1.78407 1.0763,-3.89326 z" style="clip-rule:evenodd;fill-rule:evenodd;stroke-width:0.100966;image-rendering:optimizeQuality;shape-rendering:geometricPrecision;text-rendering:geometricPrecision" />
    <path id="path262" class="fil2" d="m 74.347494,93.824095 c 8.848684,3.02293 2.787679,4.645458 8.273176,6.16399 C 81.189978,88.351723 69.761606,79.946281 62.239619,72.601994 C 59.703346,70.110147 58.036393,66.172462 57.609306,61.054482 c -4.513192,16.575633 15.454907,22.268111 16.723043,32.768603 h 0.01515 z" style="clip-rule:evenodd;fill-rule:evenodd;stroke-width:0.100966;image-rendering:optimizeQuality;shape-rendering:geometricPrecision;text-rendering:geometricPrecision" />
    <path id="path264" class="fil2" d="m 63.817722,109.48598 c 0.427087,-5.83989 0.92889,-6.42953 5.220966,-8.40645 C 65.337264,97.688074 64.024703,98.409983 56.017068,90.270082 C 54.380405,88.618274 53.598926,87.261287 52.168234,85.93459 c -0.92889,9.275772 4.438477,20.10037 11.650498,23.55139 z" style="clip-rule:evenodd;fill-rule:evenodd;stroke-width:0.100966;image-rendering:optimizeQuality;shape-rendering:geometricPrecision;text-rendering:geometricPrecision" />
    <path id="path266" class="fil2" d="m 56.783402,106.15208 c -3.126925,-2.65441 -3.996245,-5.2351 -5.339096,-6.444681 c 0.250396,8.111631 7.491697,19.540001 13.184175,20.896991 c -2.462567,-4.42434 -2.816959,-4.80802 -0.604788,-9.63016 c -2.404007,-1.253 -5.456217,-3.30362 -7.240291,-4.80802 v -0.0151 z" style="clip-rule:evenodd;fill-rule:evenodd;stroke-width:0.100966;image-rendering:optimizeQuality;shape-rendering:geometricPrecision;text-rendering:geometricPrecision" />
    <path id="path268" class="fil2" d="M 65.49982,121.9018 C 59.762917,120.29442 55.383,116.85854 52.846727,111.57901 c -0.546227,0.56037 -1.268136,-0.19183 0.265541,3.45103 l 4.512183,7.97835 c 1.917349,2.55142 5.264381,6.38511 10.1461,7.12318 c -1.400402,-2.21218 -3.878114,-4.27694 -2.285876,-8.21462 z" style="clip-rule:evenodd;fill-rule:evenodd;stroke-width:0.100966;image-rendering:optimizeQuality;shape-rendering:geometricPrecision;text-rendering:geometricPrecision" />
    <path id="path270" class="fil2" d="m 74.170803,149.52618 c 3.421747,-2.34545 5.839889,-10.95686 4.660603,-12.6531 l -4.851429,-2.28587 c -3.730704,4.17394 -1.312561,10.69232 0.191836,14.92483 v 0.0151 z" style="clip-rule:evenodd;fill-rule:evenodd;stroke-width:0.100966;image-rendering:optimizeQuality;shape-rendering:geometricPrecision;text-rendering:geometricPrecision" />
    <path id="path272" class="fil2" d="m 81.51509,151.66666 c 4.232506,-5.54507 4.335491,-4.95542 4.350636,-13.50828 c -2.625123,0.0586 -2.949224,-0.29482 -4.970569,-0.81076 c -0.721909,4.54248 -2.373717,10.47122 0.619933,14.32005 z" style="clip-rule:evenodd;fill-rule:evenodd;stroke-width:0.100966;image-rendering:optimizeQuality;shape-rendering:geometricPrecision;text-rendering:geometricPrecision" />
    <path id="path274" class="fil2" d="m 55.014473,134.21969 c 4.659593,3.06735 12.03316,0.27968 15.956709,-1.44483 c -1.371122,-1.28328 -2.625123,-0.87033 -4.880709,-1.51853 c -2.93509,-0.8259 -6.091295,-4.35064 -11.07499,2.96437 z" style="clip-rule:evenodd;fill-rule:evenodd;stroke-width:0.100966;image-rendering:optimizeQuality;shape-rendering:geometricPrecision;text-rendering:geometricPrecision" />
    <path id="path276" class="fil2" d="m 62.638436,145.18463 c 3.05221,-0.61893 5.161396,-2.2566 6.901044,-3.96697 c 1.475118,-1.45997 2.270732,-4.99985 2.93509,-7.52098 c -5.559203,2.27175 -9.541313,2.07991 -9.820989,11.48795 z" style="clip-rule:evenodd;fill-rule:evenodd;stroke-width:0.100966;image-rendering:optimizeQuality;shape-rendering:geometricPrecision;text-rendering:geometricPrecision" />
    <path id="path278" class="fil2" d="m 70.690496,111.08832 c 0.92889,-3.48031 0.649213,-3.8347 2.536273,-6.00245 c -1.341842,-1.35698 -2.609978,-3.4803 -5.500643,-1.59325 c -1.902204,1.25401 -4.689883,7.9198 2.96437,7.59469 z" style="clip-rule:evenodd;fill-rule:evenodd;stroke-width:0.100966;image-rendering:optimizeQuality;shape-rendering:geometricPrecision;text-rendering:geometricPrecision" />
    <path id="path280" class="fil2" d="m 71.900072,122.34606 c -10.02797,-2.27174 -3.008795,12.62381 2.786669,5.63391 c -0.766334,-2.05062 -0.692629,-0.75219 -1.710369,-2.6544 c -0.589643,-1.09144 -0.560363,-1.93148 -1.062165,-2.9785 h -0.01414 z" style="clip-rule:evenodd;fill-rule:evenodd;stroke-width:0.100966;image-rendering:optimizeQuality;shape-rendering:geometricPrecision;text-rendering:geometricPrecision" />
    <path id="path282" class="fil2" d="m 70.484525,120.64982 c -1.843644,-7.04946 -0.471513,-4.21736 0.102985,-8.00763 c -2.03548,-0.72292 -3.125915,-0.7522 -5.05841,-0.30997 c -2.182891,4.54247 -0.752198,9.49689 4.955425,8.30246 z" style="clip-rule:evenodd;fill-rule:evenodd;stroke-width:0.100966;image-rendering:optimizeQuality;shape-rendering:geometricPrecision;text-rendering:geometricPrecision" />
    <path id="path284" class="fil2" d="m 74.51005,103.73393 c 0.899609,-1.31256 0.707773,-1.66695 2.03548,-2.86138 c 1.252991,-1.10659 1.784074,-0.87033 2.846239,-2.03548 c -4.866574,-7.536122 -11.517222,1.93249 -4.880709,4.89585 z" style="clip-rule:evenodd;fill-rule:evenodd;stroke-width:0.100966;image-rendering:optimizeQuality;shape-rendering:geometricPrecision;text-rendering:geometricPrecision" />
    <path id="path286" class="fil2" d="m 75.866027,128.91896 c -4.099231,5.82474 4.586898,8.3176 5.368377,2.68368 l -0.692629,-0.36852 c -2.094041,-0.85519 1.828499,0.63407 -0.781479,-0.26554 c -4.128511,-1.4307 -1.10659,-0.94303 -3.907395,-2.04962 h 0.01414 z" style="clip-rule:evenodd;fill-rule:evenodd;stroke-width:0.100966;image-rendering:optimizeQuality;shape-rendering:geometricPrecision;text-rendering:geometricPrecision" />
    <path id="path288" class="fil2" d="m 82.384409,131.75611 c -0.531082,2.12332 -1.061155,2.34444 -0.840039,4.27693 c 3.495452,0.98846 4.674738,0.92889 4.895854,-2.84624 c -1.01774,-0.5755 -2.964369,-0.94403 -4.06995,-1.43069 z" style="clip-rule:evenodd;fill-rule:evenodd;stroke-width:0.100966;image-rendering:optimizeQuality;shape-rendering:geometricPrecision;text-rendering:geometricPrecision" />
    <path id="path290" class="fil2" d="m 104.84335,70.420113 c 0.0939,-0.0212 0.18577,-0.03837 0.27563,-0.0525 v -3.718588 c -0.77845,0.186788 -1.51752,0.462426 -2.17784,0.806721 c -4.689881,2.448432 -5.766182,5.442082 -12.343125,3.259191 c 1.031876,1.946629 3.303617,3.95182 6.665794,4.291066 C 102.21923,110.9298 84.50773,126.26759 88.843222,153.74152 c 2.609978,1.29741 6.415396,1.23885 9.335341,7.25543 c 2.315157,4.77773 2.020337,9.2465 1.857777,14.89455 c 0.82591,-0.94404 1.5044,-2.35958 2.24145,-3.48031 c 0.56037,-0.85619 0.7522,-1.13587 1.32771,-1.79922 l 1.51449,-1.42968 V 72.977589 c -0.18476,-0.03938 -0.37963,-0.08986 -0.5856,-0.154479 c -0.53108,-0.663348 -0.47151,-1.444827 0.30896,-2.404006 z" style="clip-rule:evenodd;fill-rule:evenodd;stroke-width:0.100966;image-rendering:optimizeQuality;shape-rendering:geometricPrecision;text-rendering:geometricPrecision" />
    <path id="path295" class="fil4" d="m 86.389741,42.245476 v 12.602609 c 0,1.430692 -0.302899,2.66652 -0.911725,3.708492 c -0.608827,1.04702 -1.480166,1.840615 -2.617046,2.386842 c -1.13688,0.546228 -2.481751,0.820856 -4.029564,0.820856 c -2.346456,0 -4.19111,-0.608827 -5.541029,-1.822441 c -1.348909,-1.218663 -2.03447,-2.883597 -2.061731,-4.99884 V 42.246485 h 4.665651 v 12.787378 c 0.05452,2.107166 1.032885,3.158225 2.937109,3.158225 c 0.956151,0 1.687147,-0.266551 2.179862,-0.794604 c 0.491706,-0.528054 0.740083,-1.389296 0.740083,-2.576659 V 42.245476 Z m 20.163979,19.248209 h -4.61113 L 95.120295,49.514037 V 61.493685 H 90.481904 V 42.245476 h 4.638391 l 6.808155,11.979648 V 42.245476 h 4.62527 z m 8.78406,-3.573196 h 8.07629 v 3.573196 H 110.69434 V 42.245476 h 4.64344 z m 19.36533,2.03447 c -0.94302,1.204528 -2.2152,1.809316 -3.81753,1.809316 c -1.57003,0 -2.75638,-0.455358 -3.56411,-1.367083 c -0.80773,-0.911726 -1.20958,-2.224287 -1.20958,-3.934656 V 47.19989 h 4.45362 v 9.289907 c 0,1.222702 0.5957,1.836576 1.78711,1.836576 c 1.01976,0 1.7457,-0.365497 2.17885,-1.096493 V 47.19989 h 4.48088 v 14.293795 h -4.17798 z" style="clip-rule:evenodd;stroke-width:0.100966;image-rendering:optimizeQuality;shape-rendering:geometricPrecision;text-rendering:geometricPrecision" />
    <path id="path297" class="fil5" d="m 106.54968,61.493685 h -1.43271 V 42.245476 h 1.43271 z m 8.78406,-3.573196 h 8.07629 v 3.573196 H 110.6903 V 42.245476 h 4.64344 z m 19.36533,2.03447 c -0.94302,1.204528 -2.2152,1.809316 -3.81753,1.809316 c -1.57003,0 -2.75638,-0.455358 -3.56411,-1.367083 c -0.80773,-0.911726 -1.20958,-2.224287 -1.20958,-3.934656 V 47.19989 h 4.45362 v 9.289907 c 0,1.222702 0.59571,1.836576 1.78711,1.836576 c 1.01976,0 1.7457,-0.365497 2.17885,-1.096493 V 47.19989 h 4.48088 v 14.293795 h -4.17798 z" style="clip-rule:evenodd;fill-rule:evenodd;stroke-width:0.100966;image-rendering:optimizeQuality;shape-rendering:geometricPrecision;text-rendering:geometricPrecision" />
  </g>
</svg>
