<?xml version="1.0" encoding="UTF-8"?>
<!DOCTYPE svg PUBLIC "-//W3C//DTD SVG 1.1//EN" "http://www.w3.org/Graphics/SVG/1.1/DTD/svg11.dtd">
<svg xmlns="http://www.w3.org/2000/svg" xml:space="preserve" width="82.4845mm" height="93.5292mm" version="1.1" style="shape-rendering:geometricPrecision; text-rendering:geometricPrecision; image-rendering:optimizeQuality; fill-rule:evenodd; clip-rule:evenodd"
viewBox="0 0 2043.5 2317.12">
 <defs>
  <style type="text/css">
   <![CDATA[
    .str0 {stroke:#FBC808;stroke-width:61.94;stroke-miterlimit:22.9256}
    .fil5 {fill:#FEFEFE}
    .fil1 {fill:#014026}
    .fil2 {fill:#E6E6E6}
    .fil0 {fill:white}
    .fil4 {fill:#E6E6E6;fill-rule:nonzero}
    .fil3 {fill:white;fill-opacity:0.200000}
   ]]>
  </style>
 </defs>
 <g id="Capa_x0020_1">
  <metadata id="CorelCorpID_0Corel-Layer"/>
  <polygon class="fil0 str0" points="1021.75,30.97 2010.11,30.97 1856.63,2073 1021.75,2285.17 186.87,2073 33.38,30.97 "/>
  <polygon class="fil1" points="1021.75,153.96 1883.87,153.96 1749.99,1973.16 1021.75,2162.18 293.51,1973.16 159.63,153.96 "/>
  <g id="_2375367422752">
   <path class="fil0" d="M1236.21 1816.13c20.3,-45.57 36.52,-82.82 34.03,-142.7 -3.65,3.51 -3.65,3.07 -7.6,8.62l-4.23 6.43c-50.83,80.34 -46.59,46.74 -83.98,85.45 -4.67,-52.29 1.61,-103.12 -33.45,-134.96 -30.82,14.75 -53.46,53.75 -64.41,94.5 -14.75,-59.88 -16.36,-83.69 -54.04,-120.5 -30.38,20.45 -47.91,71.13 -54.19,121.08 -6.14,-18.84 -16.65,-39.73 -26.29,-56.67 -11.54,-20.45 -17.67,-31.99 -44.4,-39.29 -26.59,58.28 -25.71,61.35 -27.75,134.09 -57.26,-24.83 -71.42,-66.17 -90.12,-89.39l-6.72 -6.57c-0.44,75.81 19.72,86.32 33.01,139.64 -30.09,-6.86 -33.45,-14.61 -54.77,-22.5 14.46,47.47 52.87,95.96 105.02,105.16 -5.11,-36.66 -13.58,-54.19 -5.99,-93.04 29.65,-5.84 74.05,19.43 95.96,37.39l22.78 20.88c0.58,-1.02 2.19,1.9 3.51,2.78 7.01,-38.12 26.15,-76.25 49.95,-93.63 25.27,19.43 40.61,57.84 49.08,92.9 32.86,-25.71 45.13,-50.39 122.11,-63.83 5.26,48.49 -3.94,56.38 -5.84,97.13 54.77,-8.76 85.59,-58.28 105.16,-104.73 -18.11,2.48 -27.61,17.09 -56.82,21.62l0 0.15z"/>
   <path class="fil0" d="M867.84 1823.73c-16.07,98.15 59.01,148.98 154.68,148.84 93.33,-0.15 166.8,-48.78 153.95,-148.25 -58.43,4.97 -82.82,52 -111.88,80.33 -10.37,-41.63 -13.88,-80.92 -42.06,-105.6 -27.17,23.22 -36.08,61.2 -41.92,107.79 -20.89,-20.01 -46.45,-74.05 -112.61,-83.11l-0.15 0z"/>
   <path class="fil0" d="M1085.47 1654.01c25.71,-13.44 22.93,-29.36 60.76,-44.84 32.42,29.21 38.85,81.79 40.02,132.19 56.23,-22.2 106.04,-170.6 58.57,-237.79 -31.11,-43.96 -169.72,-90.27 -159.35,150.44z"/>
   <path class="fil0" d="M958.26 1652.4c2.48,-55.65 0.87,-110.86 -27.02,-149.42 -25.71,-35.49 -82.82,-48.2 -122.69,-11.83 -61.2,55.79 -14.02,223.04 49.81,250.06 -1.61,-57.99 8.62,-94.5 37.1,-132.33 13.29,3.51 24.69,10.66 34.47,19.13 16.36,14.17 13.58,19.43 28.48,24.39l-0.15 0z"/>
   <path class="fil0" d="M1190.35 1161.19c34.91,5.55 66.6,-25.85 69.23,-58.86 6.43,-82.67 -104,-215.44 49.22,-358 12.41,-11.54 20.45,-23.52 32.72,-34.18 65.58,-57.26 163.44,-129.56 123.42,-252.83 -6.43,14.75 -5.55,41.04 -11.98,60.18 -49.81,148.98 -349.23,274.01 -255.61,466.67 92.31,189.73 -8.91,128.97 -7.16,177.02l0.15 0z"/>
   <path class="fil0" d="M807.37 990.01c-10.81,39.58 -57.55,143.73 24.25,169.72 14.46,4.67 17.38,1.46 22.35,-0.73 -3.51,-24.1 6.57,-8.91 -17.53,-19.86 -15.05,-6.86 -12.85,-0.88 -22.5,-13.58 -55.79,-73.76 138.76,-167.24 -8.18,-352.59 -94.79,-119.48 -211.79,-164.03 -223.91,-317.1 -46.45,113.2 38.71,170.31 85.01,224.21 41.77,48.64 191.05,125.47 140.51,310.09l0 -0.15z"/>
   <path class="fil0" d="M671.39 894.92c9.35,-47.03 15.63,-31.26 32.13,-60.62 -11.83,-95.23 -174.1,-137.59 -182.28,-287.74 -22.64,68.65 -8.18,157.31 21.03,216.76 27.46,55.94 79.16,104.29 129.27,131.6l-0.15 0z"/>
   <path class="fil0" d="M1370.73 894.19c35.06,-10.66 54.92,-37.68 76.68,-57.55 81.06,-73.76 92.02,-178.34 77.7,-289.79 -10.37,37.98 -7.6,52.15 -27.75,87.05 -23.08,40.17 -77.41,95.81 -111.01,126.05 -21.18,18.99 -40.9,36.81 -46.01,74.35 17.09,29.36 26.29,14.9 30.67,59.74l-0.29 0.15z"/>
   <path class="fil0" d="M1287.04 1156.81c43.67,-1.17 52,-23.52 29.8,-54.48 18.55,-9.93 32.28,-13 33.89,-36.51 1.75,-24.69 -9.79,-33.74 -27.9,-42.51 40.31,-20.45 18.26,-64.12 -24.1,-62.95 1.61,-66.31 -49.52,-58.72 -56.82,-30.82 -7.01,26.58 10.08,72.88 17.67,95.67 10.22,30.38 23.23,70.4 10.22,102.39 -11.83,29.07 -40.02,31.4 -71.71,46.74 -2.19,19.43 -0.88,18.55 4.96,36.22 15.92,1.61 17.67,5.55 29.94,-5.84l10.96 -16.94c0.44,-2.05 1.46,-2.48 2.48,-3.65 12.42,10.37 45.72,18.26 40.9,-27.46l-0.29 0.15z"/>
   <path class="fil0" d="M847.69 1172.44c-54.48,-11.68 -90.41,-37.25 -75.22,-104.58 9.49,-42.36 40.9,-101.95 26.14,-148.69 -41.63,-24.39 -54.34,1.32 -53.17,41.48 -35.93,-2.19 -63.68,22.05 -25.56,64.71 -39.44,13.88 -38.7,63.68 6.86,73.76 -0.88,1.61 -2.19,3.21 -2.92,4.53 -0.73,1.17 -1.9,2.92 -2.77,4.38 -15.19,27.75 -4.38,51.12 36.22,47.47l0.73 30.53c16.36,5.11 25.56,7.45 42.94,0.29 9.06,15.48 8.91,26.14 36.08,24.69 10.81,-15.19 10.22,-17.67 10.66,-38.56z"/>
   <path class="fil0" d="M716.96 836.21c87.64,29.94 27.61,46.01 81.94,61.05 -14.17,-115.24 -127.36,-198.5 -201.86,-271.24 -25.12,-24.69 -41.63,-63.68 -45.86,-114.37 -44.7,164.17 153.07,220.55 165.63,324.55l0.15 0z"/>
   <path class="fil0" d="M1325.89 838.54c15.92,-113.78 198.79,-147.08 170.01,-320.9 -8.47,17.82 -7.59,42.65 -18.99,65.14 -43.82,86.47 -226.83,180.24 -232.09,316.81 51.56,-24.25 10.37,-50.98 81.06,-61.05z"/>
   <path class="fil0" d="M612.67 991.33c4.24,-57.84 9.2,-63.68 51.71,-83.26 -36.66,-33.59 -49.66,-26.44 -128.97,-107.06 -16.21,-16.36 -23.95,-29.8 -38.12,-42.94 -9.2,91.87 43.96,199.08 115.39,233.26z"/>
   <path class="fil0" d="M1434.71 989.42c64.12,-42.21 116.56,-116.56 112.76,-231.94 -33.3,26.29 -10.52,39.14 -167.39,149.42 24.54,16.5 40.17,15.63 48.93,57.55l5.84 24.83 -0.15 0.15z"/>
   <path class="fil0" d="M1423.61 1101.45c24.54,-6.72 35.64,-19.13 52.43,-35.2 36.08,-34.62 79.17,-122.69 77.27,-175.57 -26.88,33.3 -21.32,41.77 -55.06,68.94 -21.03,17.09 -48.35,32.13 -68.94,49.95 21.33,32.72 17.67,59.89 -5.7,91.87z"/>
   <path class="fil0" d="M543 958.32c-30.97,-26.29 -39.58,-51.85 -52.88,-63.83 2.48,80.34 74.2,193.53 130.58,206.97 -24.39,-43.82 -27.9,-47.62 -5.99,-95.38 -23.81,-12.41 -54.04,-32.72 -71.71,-47.62l0 -0.14z"/>
   <path class="fil0" d="M1391.91 1195.81c70.4,-10.96 141.68,-109.69 157.16,-186.67 -27.75,21.91 -53.6,86.62 -134.38,104.73 14.75,42.07 -8.76,55.94 -22.64,81.94l-0.15 0z"/>
   <path class="fil0" d="M629.32 1114.31c-56.82,-15.92 -100.2,-49.95 -125.32,-102.24 -5.4,5.55 -12.56,-1.9 2.63,34.18l44.7 79.02c18.99,25.27 52.15,63.24 100.49,70.55 -13.88,-21.91 -38.41,-42.36 -22.64,-81.36l0.15 -0.15z"/>
   <path class="fil0" d="M1281.78 1261.98c-4.53,50.24 15.04,95.67 41.92,126.49 34.91,-49.81 29.36,-94.06 11.39,-149.42 -9.64,4.67 -48.35,19.72 -53.31,22.93z"/>
   <path class="fil0" d="M715.21 1387.88c33.89,-23.22 57.84,-108.52 46.15,-125.32l-48.05 -22.64c-36.95,41.34 -13,105.9 1.9,147.81l0 0.15z"/>
   <path class="fil0" d="M1211.97 1274.68c1.61,31.55 -2.78,55.36 9.06,82.67 10.08,23.23 20.16,40.46 39.58,50.98 11.69,-43.38 20.59,-94.21 -1.02,-140.51 -13.58,4.53 -27.46,8.18 -47.61,6.86z"/>
   <path class="fil0" d="M787.95 1409.06c41.92,-54.92 42.94,-49.08 43.09,-133.79 -26,0.58 -29.21,-2.92 -49.22,-8.03 -7.16,44.99 -23.52,103.7 6.13,141.83z"/>
   <path class="fil0" d="M1518.4 1236.27c-44.4,-74.64 -90.41,-34.03 -112.76,-28.33 -43.82,10.95 -23.52,-6.72 -45.28,15.19 42.8,19.28 98.01,38.85 151.03,17.09l7.01 -3.94z"/>
   <path class="fil0" d="M1345.76 1231.3c13.58,47.62 20.01,98.15 97.13,113.49 -4.24,-98.59 -35.35,-86.47 -97.13,-113.49z"/>
   <path class="fil0" d="M525.48 1236.27c46.15,30.38 119.18,2.77 158.04,-14.31 -13.58,-12.71 -26,-8.62 -48.35,-15.04 -29.07,-8.18 -60.32,-43.09 -109.69,29.36z"/>
   <path class="fil0" d="M600.99 1344.94c30.23,-6.13 51.12,-22.35 68.36,-39.29 14.61,-14.46 22.5,-49.52 29.07,-74.49 -55.07,22.49 -94.5,20.59 -97.28,113.78l-0.15 0z"/>
   <path class="fil0" d="M1338.01 947.8c10.08,15.04 18.84,29.8 23.08,58.28 99.76,15.19 37.68,-134.08 -23.08,-58.28z"/>
   <path class="fil0" d="M680.74 1007.25c9.2,-34.47 6.43,-37.98 25.12,-59.45 -13.29,-13.44 -25.85,-34.47 -54.48,-15.78 -18.84,12.42 -46.45,78.44 29.36,75.22z"/>
   <path class="fil0" d="M1322.68 1175.21c51.56,69.23 130.29,-77.12 29.65,-56.96 -7.74,12.56 -6.43,22.2 -13.15,32.72 -11.69,18.26 -10.08,1.9 -16.5,24.25z"/>
   <path class="fil0" d="M692.72 1118.69c-99.32,-22.49 -29.8,125.03 27.61,55.8 -7.6,-20.3 -6.86,-7.45 -16.94,-26.29 -5.84,-10.81 -5.55,-19.13 -10.52,-29.5l-0.15 0z"/>
   <path class="fil0" d="M678.69 1101.89c-18.26,-69.82 -4.67,-41.77 1.02,-79.31 -20.16,-7.16 -30.97,-7.45 -50.1,-3.07 -21.62,44.99 -7.45,94.07 49.08,82.23l0 0.15z"/>
   <path class="fil0" d="M1365.04 1102.48c37.39,6.28 57.11,-5.11 58.72,-46.89 1.61,-42.65 -24.83,-43.96 -59.16,-33.59l4.97 16.94c9.93,30.96 3.8,33.59 -4.53,63.39l0 0.15z"/>
   <path class="fil0" d="M718.57 934.36c8.91,-13 7.01,-16.5 20.16,-28.34 12.41,-10.96 17.67,-8.62 28.19,-20.16 -48.2,-74.64 -114.07,19.13 -48.34,48.49z"/>
   <path class="fil0" d="M1290.25 896.82c35.93,22.2 16.07,14.31 36.23,38.12 64.56,-48.49 -4.97,-110.86 -50.39,-50.1l14.17 11.98z"/>
   <path class="fil0" d="M1050.57 682.11c7.89,45.13 97.42,43.24 100.64,-6.72 -15.48,2.19 -29.65,6.72 -46.3,7.89 -20.45,1.32 -38.12,-4.24 -54.34,-1.17z"/>
   <path class="fil0" d="M1258.41 1210.56c4.53,29.94 23.66,40.31 51.41,24.69 23.81,-13.29 11.54,-35.2 2.19,-51.12 -18.84,7.74 -10.22,9.93 -25.85,16.8 -10.96,4.82 -14.31,1.31 -27.75,9.49l0 0.15z"/>
   <path class="fil0" d="M732.01 1183.83c-40.61,57.69 45.42,82.38 53.17,26.58l-6.86 -3.65c-20.74,-8.47 18.11,6.28 -7.74,-2.63 -40.9,-14.17 -10.96,-9.35 -38.7,-20.3l0.15 0z"/>
   <path class="fil0" d="M796.57 1211.88c-5.26,21.03 -10.52,23.23 -8.33,42.36 34.62,9.79 46.3,9.2 48.49,-28.19 -10.08,-5.7 -29.36,-9.35 -40.31,-14.17l0.15 0z"/>
   <path class="fil0" d="M1207 1226.04c0.73,13.15 3.94,20.74 8.33,28.48 52.43,16.65 39.14,-10.96 32.13,-43.23 -24.1,13 -23.95,6.13 -40.46,14.6l0 0.15z"/>
   <path class="fil0" d="M1066.49 676.12c116.85,-0.44 112.61,-48.2 176.44,-17.67 -5.99,-20.16 -15.63,-30.38 -40.75,-34.32 -70.55,-10.96 -72.45,4.67 -116.26,36.51 -3.8,2.77 -5.84,3.8 -9.64,6.86 -6.43,5.11 -5.55,4.09 -9.79,8.76l0 -0.15z"/>
   <path class="fil0" d="M1019.02 604.41c36.66,-8.32 41.04,37.54 -3.07,23.81 -5.26,-6.57 -4.67,-14.31 3.07,-23.81zm-141.1 2.92c10.22,19.28 32.72,39.15 66.02,42.51 49.08,355.81 -126.34,507.71 -83.4,779.82 25.85,12.85 63.54,12.27 92.46,71.86 22.93,47.32 20.01,91.58 18.4,147.52 8.18,-9.35 14.9,-23.37 22.2,-34.47 5.55,-8.47 7.45,-11.25 13.15,-17.82l15.63 -14.75c23.95,18.55 30.53,44.26 49.66,68.94 0.58,-55.21 -5.11,-98.88 17.09,-146.94 17.53,-37.83 44.84,-64.12 93.33,-70.4 43.82,-249.18 -92.75,-339.59 -88.51,-707.52 -33.89,-10.37 -49.37,-14.31 -55.65,-52 38.7,-11.98 61.35,-29.94 77.41,-56.09 -16.8,-59.74 -78.58,-62.22 -115.54,-42.94 -46.45,24.25 -57.11,53.9 -122.25,32.28z"/>
  </g>
  <g id="_2375367422752_0">
   <path class="fil2" d="M1021.75 1613.5c-29.9,20.78 -47.19,71.02 -53.41,120.54 -6.13,-18.84 -16.65,-39.73 -26.29,-56.67 -11.54,-20.45 -17.67,-31.99 -44.4,-39.29 -26.58,58.28 -25.71,61.35 -27.75,134.08 -57.26,-24.83 -71.42,-66.16 -90.12,-89.39l-6.72 -6.57c-0.44,75.8 19.72,86.32 33.01,139.64 -30.09,-6.87 -33.45,-14.61 -54.77,-22.5 14.46,47.47 52.87,95.96 105.02,105.16 -5.11,-36.66 -13.58,-54.19 -5.99,-93.04 29.65,-5.84 74.06,19.43 95.96,37.39l22.78 20.88c0.58,-1.02 2.19,1.9 3.51,2.77 6.93,-37.71 25.73,-75.41 49.18,-93.05l0 -159.98z"/>
   <path class="fil2" d="M867.84 1823.73c-16.03,97.89 58.61,148.7 153.9,148.83l0 -172.84c-26.56,23.28 -35.36,60.97 -41.15,107.12 -20.89,-20.01 -46.45,-74.06 -112.61,-83.11l-0.15 0z"/>
   <path class="fil2" d="M958.25 1652.4c2.48,-55.65 0.88,-110.86 -27.02,-149.42 -25.71,-35.49 -82.82,-48.2 -122.69,-11.83 -61.2,55.79 -14.02,223.04 49.81,250.05 -1.61,-57.98 8.62,-94.5 37.1,-132.33 13.29,3.51 24.68,10.66 34.47,19.13 16.36,14.17 13.58,19.43 28.48,24.39l-0.15 0z"/>
   <path class="fil2" d="M807.37 990.01c-10.81,39.58 -57.55,143.73 24.25,169.72 14.46,4.67 17.38,1.46 22.34,-0.73 -3.5,-24.1 6.57,-8.91 -17.53,-19.87 -15.05,-6.86 -12.86,-0.87 -22.5,-13.58 -55.79,-73.76 138.76,-167.24 -8.18,-352.59 -94.79,-119.48 -211.79,-164.03 -223.91,-317.1 -46.45,113.2 38.71,170.31 85.01,224.2 41.77,48.64 191.05,125.47 140.51,310.09l0 -0.15z"/>
   <path class="fil2" d="M671.39 894.92c9.35,-47.03 15.63,-31.26 32.13,-60.62 -11.83,-95.23 -174.1,-137.59 -182.28,-287.74 -22.64,68.65 -8.18,157.31 21.03,216.75 27.46,55.94 79.16,104.29 129.27,131.6l-0.15 0z"/>
   <path class="fil2" d="M847.69 1172.44c-54.48,-11.69 -90.41,-37.25 -75.22,-104.58 9.49,-42.36 40.89,-101.95 26.14,-148.69 -41.63,-24.39 -54.33,1.32 -53.17,41.48 -35.93,-2.19 -63.68,22.06 -25.56,64.71 -39.44,13.87 -38.71,63.68 6.86,73.76 -0.87,1.61 -2.19,3.21 -2.92,4.53 -0.73,1.17 -1.9,2.92 -2.78,4.38 -15.19,27.75 -4.38,51.12 36.23,47.47l0.73 30.53c16.36,5.11 25.56,7.45 42.94,0.29 9.06,15.48 8.91,26.14 36.08,24.69 10.81,-15.19 10.22,-17.67 10.66,-38.56z"/>
   <path class="fil2" d="M716.96 836.21c87.64,29.94 27.61,46.01 81.94,61.05 -14.17,-115.25 -127.36,-198.5 -201.86,-271.24 -25.12,-24.68 -41.63,-63.68 -45.86,-114.37 -44.7,164.17 153.07,220.55 165.63,324.55l0.15 0z"/>
   <path class="fil2" d="M612.67 991.33c4.23,-57.84 9.2,-63.68 51.71,-83.26 -36.66,-33.59 -49.66,-26.44 -128.97,-107.06 -16.21,-16.36 -23.95,-29.8 -38.12,-42.94 -9.2,91.87 43.96,199.08 115.39,233.26z"/>
   <path class="fil2" d="M543 958.31c-30.97,-26.29 -39.58,-51.85 -52.88,-63.83 2.48,80.34 74.2,193.53 130.58,206.97 -24.39,-43.82 -27.9,-47.62 -5.99,-95.38 -23.81,-12.41 -54.04,-32.72 -71.71,-47.62l0 -0.15z"/>
   <path class="fil2" d="M629.33 1114.31c-56.82,-15.92 -100.2,-49.95 -125.32,-102.24 -5.41,5.55 -12.56,-1.9 2.63,34.18l44.69 79.02c18.99,25.27 52.14,63.24 100.49,70.55 -13.87,-21.91 -38.41,-42.36 -22.64,-81.36l0.15 -0.15z"/>
   <path class="fil2" d="M715.21 1387.88c33.89,-23.23 57.84,-108.52 46.16,-125.32l-48.05 -22.64c-36.95,41.34 -13,105.9 1.9,147.82l0 0.15z"/>
   <path class="fil2" d="M787.95 1409.06c41.92,-54.92 42.94,-49.08 43.09,-133.79 -26,0.58 -29.21,-2.92 -49.23,-8.03 -7.15,44.99 -23.51,103.71 6.14,141.83z"/>
   <path class="fil2" d="M525.48 1236.27c46.15,30.38 119.18,2.77 158.04,-14.31 -13.58,-12.71 -26,-8.62 -48.34,-15.04 -29.07,-8.18 -60.33,-43.09 -109.69,29.36z"/>
   <path class="fil2" d="M600.99 1344.94c30.23,-6.13 51.12,-22.35 68.35,-39.29 14.61,-14.46 22.49,-49.52 29.07,-74.49 -55.06,22.5 -94.5,20.6 -97.27,113.78l-0.15 0z"/>
   <path class="fil2" d="M680.74 1007.25c9.2,-34.47 6.43,-37.98 25.12,-59.45 -13.29,-13.44 -25.85,-34.47 -54.48,-15.78 -18.84,12.42 -46.45,78.44 29.36,75.22z"/>
   <path class="fil2" d="M692.72 1118.69c-99.32,-22.5 -29.8,125.03 27.6,55.8 -7.59,-20.31 -6.86,-7.45 -16.94,-26.29 -5.84,-10.81 -5.55,-19.13 -10.52,-29.5l-0.14 0z"/>
   <path class="fil2" d="M678.7 1101.89c-18.26,-69.82 -4.67,-41.77 1.02,-79.31 -20.16,-7.16 -30.96,-7.45 -50.1,-3.07 -21.62,44.99 -7.45,94.06 49.08,82.23l0 0.15z"/>
   <path class="fil2" d="M718.57 934.36c8.91,-13 7.01,-16.51 20.16,-28.34 12.41,-10.96 17.67,-8.62 28.19,-20.16 -48.2,-74.64 -114.07,19.14 -48.34,48.49z"/>
   <path class="fil2" d="M732 1183.83c-40.6,57.69 45.43,82.38 53.17,26.58l-6.86 -3.65c-20.74,-8.47 18.11,6.28 -7.74,-2.63 -40.89,-14.17 -10.96,-9.34 -38.7,-20.3l0.14 0z"/>
   <path class="fil2" d="M796.56 1211.88c-5.26,21.03 -10.51,23.22 -8.32,42.36 34.62,9.79 46.3,9.2 48.49,-28.19 -10.08,-5.7 -29.36,-9.35 -40.31,-14.17l0.14 0z"/>
   <path class="fil2" d="M1019.02 604.41c0.93,-0.21 1.84,-0.38 2.73,-0.52l0 -36.83c-7.71,1.85 -15.03,4.58 -21.57,7.99 -46.45,24.25 -57.11,53.9 -122.25,32.28 10.22,19.28 32.72,39.14 66.02,42.5 49.08,355.8 -126.34,507.71 -83.4,779.82 25.85,12.85 63.54,12.27 92.46,71.86 22.93,47.32 20.01,91.58 18.4,147.52 8.18,-9.35 14.9,-23.37 22.2,-34.47 5.55,-8.48 7.45,-11.25 13.15,-17.82l15 -14.16 0 -952.84c-1.83,-0.39 -3.76,-0.89 -5.8,-1.53 -5.26,-6.57 -4.67,-14.31 3.06,-23.81z"/>
  </g>
  <polygon class="fil3" points="1021.75,283.67 1741.07,283.67 1629.36,1874.76 1021.75,2032.47 "/>
  <path class="fil4" d="M836.23 325.36l0 124.82c0,14.17 -3,26.41 -9.03,36.73 -6.03,10.37 -14.66,18.23 -25.92,23.64 -11.26,5.41 -24.58,8.13 -39.91,8.13 -23.24,0 -41.51,-6.03 -54.88,-18.05 -13.36,-12.07 -20.15,-28.56 -20.42,-49.51l0 -125.75 46.21 0 0 126.65c0.54,20.87 10.23,31.28 29.09,31.28 9.47,0 16.71,-2.64 21.59,-7.87 4.87,-5.23 7.33,-13.76 7.33,-25.52l0 -124.55 45.94 0zm199.71 190.64l-45.67 0 -67.57 -118.65 0 118.65 -45.94 0 0 -190.64 45.94 0 67.43 118.65 0 -118.65 45.81 0 0 190.64zm87 -35.39l79.99 0 0 35.39 -125.98 0 0 -190.64 45.99 0 0 155.25zm191.8 20.15c-9.34,11.93 -21.94,17.92 -37.81,17.92 -15.55,0 -27.3,-4.51 -35.3,-13.54 -8,-9.03 -11.98,-22.03 -11.98,-38.97l0 -91.74 44.11 0 0 92.01c0,12.11 5.9,18.19 17.7,18.19 10.1,0 17.29,-3.62 21.58,-10.86l0 -99.34 44.38 0 0 141.57 -41.38 0 -1.3 -15.24z"/>
  <path class="fil5" d="M1035.94 516l-14.19 0 0 -190.64 14.19 0 0 190.64zm87 -35.39l79.99 0 0 35.39 -125.98 0 0 -190.64 45.99 0 0 155.25zm191.8 20.15c-9.34,11.93 -21.94,17.92 -37.81,17.92 -15.55,0 -27.3,-4.51 -35.3,-13.54 -8,-9.03 -11.98,-22.03 -11.98,-38.97l0 -91.74 44.11 0 0 92.01c0,12.11 5.9,18.19 17.7,18.19 10.1,0 17.29,-3.62 21.58,-10.86l0 -99.34 44.38 0 0 141.57 -41.38 0 -1.3 -15.24z"/>
 </g>
</svg>
